M48
; DRILL file KiCad 10.0.2 date 2026-05-20T18:33:09
; FORMAT={-:-/ absolute / metric / decimal}
; #@! TF.CreationDate,2026-05-20T18:33:09+05:30
; #@! TF.GenerationSoftware,Kicad,Pcbnew,10.0.2
; #@! TF.FileFunction,Plated,1,4,PTH
FMAT,2
METRIC
; #@! TA.AperFunction,Plated,PTH,ViaDrill
T1C0.300
; #@! TA.AperFunction,Plated,PTH,ComponentDrill
T2C0.500
; #@! TA.AperFunction,Plated,PTH,ComponentDrill
T3C0.550
%
G90
G05
T1
X127.0Y-81.8
X129.5Y-78.4
X129.5Y-81.0
X129.5Y-99.0
X129.5Y-105.0
X130.0Y-79.625
X130.0Y-109.0
X130.25Y-106.25
X131.5Y-79.0
X133.0Y-84.5
X133.5Y-77.0
X134.0Y-109.0
X135.0Y-78.5
X135.0Y-82.0
X135.0Y-84.0
X136.0Y-78.5
X136.5Y-79.5
X136.5Y-82.5
X136.5Y-90.0
X137.11Y-95.5
X137.25Y-79.0
X138.3Y-95.46
X138.5Y-81.0
X139.0Y-90.0
X139.0Y-93.0
X139.453Y-81.953
X139.48Y-95.49
X139.787Y-81.046
X140.0Y-80.0
X140.5Y-76.5
X140.5Y-84.0
X140.64Y-94.69
X141.0Y-80.739
X141.0Y-88.0
X141.01Y-86.85
X141.12Y-86.02
X141.475Y-81.5
X141.5Y-80.0
X141.7Y-94.63
X142.5Y-81.0
X142.551Y-79.475
X142.87Y-94.7
X143.0Y-94.0
X143.15Y-101.5
X143.5Y-84.5
X143.5Y-86.5
X143.9Y-100.5
X143.98Y-94.69
X144.25Y-80.25
X144.5Y-83.5
X144.5Y-85.5
X145.0Y-76.5
X145.0Y-80.0
X145.0Y-90.5
X145.5Y-84.5
X145.5Y-86.5
X146.15Y-76.5
X146.5Y-79.0
X146.5Y-83.5
X146.5Y-85.5
X146.5Y-100.5
X147.25Y-76.5
X147.5Y-84.5
X147.5Y-86.5
X147.82Y-94.33
X148.0Y-100.5
X148.5Y-89.52
X148.94Y-93.99
X149.0Y-81.5
X149.2Y-76.3
X149.2Y-77.1
X149.2Y-77.95
X150.18Y-85.43
X150.49Y-86.17
X150.5Y-87.0
X150.5Y-93.0
X151.0Y-91.0
X151.05Y-78.7
X151.115Y-85.385
X151.5Y-76.5
X152.0Y-106.5
X152.5Y-94.0
X153.5Y-83.5
X154.0Y-84.5
X154.26Y-90.76
X154.35Y-81.0
X154.5Y-91.5
X154.5Y-96.0
X154.5Y-103.5
X154.5Y-109.5
X154.83Y-90.0
X155.0Y-88.0
X155.5Y-101.5
X157.0Y-87.05
X158.0Y-96.0
X158.0Y-101.0
X158.5Y-81.0
X159.176Y-76.55
X159.5Y-103.0
X159.5Y-106.225
X159.701Y-77.401
X159.75Y-85.5
X160.5Y-83.5
X160.5Y-97.5
X161.0Y-91.0
X161.5Y-100.0
X161.5Y-105.0
X162.5Y-109.5
X163.0Y-86.5
X163.5Y-99.0
T2
G00X162.463Y-88.5
M15
G01X161.812Y-88.5
M16
G05
G00X162.463Y-95.5
M15
G01X161.812Y-95.5
M16
G05
T3
G00X159.438Y-89.65
M15
G01X159.438Y-89.35
M16
G05
G00X159.438Y-94.65
M15
G01X159.438Y-94.35
M16
G05
M30
