%TF.GenerationSoftware,KiCad,Pcbnew,10.0.2*%
%TF.CreationDate,2026-05-20T18:33:07+05:30*%
%TF.ProjectId,SmartWatch,536d6172-7457-4617-9463-682e6b696361,rev?*%
%TF.SameCoordinates,Original*%
%TF.FileFunction,Copper,L4,Bot*%
%TF.FilePolarity,Positive*%
%FSLAX46Y46*%
G04 Gerber Fmt 4.6, Leading zero omitted, Abs format (unit mm)*
G04 Created by KiCad (PCBNEW 10.0.2) date 2026-05-20 18:33:07*
%MOMM*%
%LPD*%
G01*
G04 APERTURE LIST*
%TA.AperFunction,ComponentPad*%
%ADD10O,1.550000X1.000000*%
%TD*%
%TA.AperFunction,ComponentPad*%
%ADD11O,0.950000X1.250000*%
%TD*%
%TA.AperFunction,ViaPad*%
%ADD12C,0.600000*%
%TD*%
%TA.AperFunction,Conductor*%
%ADD13C,0.500000*%
%TD*%
%TA.AperFunction,Conductor*%
%ADD14C,0.150000*%
%TD*%
%TA.AperFunction,Conductor*%
%ADD15C,0.200000*%
%TD*%
G04 APERTURE END LIST*
D10*
%TO.P,J2,*%
%TO.N,GND*%
X162137500Y-95500000D03*
D11*
X159437500Y-94500000D03*
X159437500Y-89500000D03*
D10*
X162137500Y-88500000D03*
%TD*%
D12*
%TO.N,GND*%
X159500000Y-103000000D03*
X161000000Y-91000000D03*
X129500000Y-81000000D03*
X146150000Y-76500000D03*
X143000000Y-94000000D03*
X149200000Y-76300000D03*
X145500000Y-84500000D03*
X154350000Y-81000000D03*
X137250000Y-79000000D03*
X151500000Y-76500000D03*
X134000000Y-109000000D03*
X142870000Y-94700000D03*
X141700000Y-94630000D03*
X143500000Y-84500000D03*
X129500000Y-78400000D03*
X154830000Y-90000000D03*
X154500000Y-109500000D03*
X151050000Y-78700000D03*
X158500000Y-81000000D03*
X146500000Y-83500000D03*
X143500000Y-86500000D03*
X157000000Y-87050000D03*
X137110000Y-95500000D03*
X145000000Y-76500000D03*
X144500000Y-85500000D03*
X138500000Y-81000000D03*
X161500000Y-105000000D03*
X149200000Y-77950000D03*
X133000000Y-84500000D03*
X163000000Y-86500000D03*
X149200000Y-77100000D03*
X145500000Y-86500000D03*
X140640000Y-94690000D03*
X152500000Y-94000000D03*
X139480000Y-95490000D03*
X146500000Y-85500000D03*
X158000000Y-96000000D03*
X143150000Y-101500000D03*
X129500000Y-105000000D03*
X159701000Y-77401150D03*
X151000000Y-91000000D03*
X147250000Y-76500000D03*
X161500000Y-100000000D03*
X148500000Y-89520000D03*
X147500000Y-86500000D03*
X144500000Y-83500000D03*
X138300000Y-95460000D03*
X129500000Y-99000000D03*
X143980000Y-94690000D03*
X148000000Y-100500000D03*
X155000000Y-88000000D03*
X135000000Y-84000000D03*
X147500000Y-84500000D03*
%TO.N,+3V3*%
X143900000Y-100500000D03*
X139453090Y-81953090D03*
X150490000Y-86170000D03*
X162500000Y-109500000D03*
X127000000Y-81799998D03*
X148940000Y-93990000D03*
X146500000Y-79000000D03*
X152000000Y-106500000D03*
X149000000Y-81500000D03*
X140500000Y-76500000D03*
X131500000Y-79000000D03*
X140500000Y-84000000D03*
X145000000Y-90500000D03*
X130000000Y-109000000D03*
X154500000Y-96000000D03*
X136500000Y-82500000D03*
X140000000Y-80000000D03*
%TO.N,RES*%
X146500000Y-100500000D03*
X147820000Y-94330000D03*
%TO.N,SCL*%
X141000000Y-80739062D03*
X139000000Y-93000000D03*
X136000000Y-78500000D03*
%TO.N,BTN1*%
X142551000Y-79475000D03*
X159500000Y-106225000D03*
%TO.N,BTN4*%
X130250000Y-106250000D03*
X141500000Y-80000000D03*
%TO.N,BTN3*%
X135000000Y-82000000D03*
X136500000Y-90000000D03*
X130000000Y-79625000D03*
X133500000Y-77000000D03*
X145000000Y-80000000D03*
%TO.N,ADC*%
X159750000Y-85500000D03*
X142500000Y-81000000D03*
%TO.N,STAT*%
X141475000Y-81500000D03*
X154500000Y-103500000D03*
%TO.N,Net-(U3-STAT)*%
X155500000Y-101500000D03*
X163500000Y-99000000D03*
%TO.N,+BATT*%
X160500000Y-83500000D03*
X158000000Y-101000000D03*
X160500000Y-97500000D03*
%TO.N,BTN2*%
X159176000Y-76550000D03*
X150500000Y-87000000D03*
X135000000Y-78500000D03*
X144250000Y-80250000D03*
%TO.N,Net-(U4-U0RXD{slash}PROG{slash}GPIO44)*%
X153500000Y-83500000D03*
X151115000Y-85385000D03*
%TO.N,USB_DET*%
X141000000Y-88000000D03*
X150500000Y-93000000D03*
%TO.N,USB_D+*%
X141010000Y-86850000D03*
X154500000Y-91500000D03*
%TO.N,USB_D-*%
X154260000Y-90760000D03*
X141120000Y-86020000D03*
%TO.N,SDA*%
X139786546Y-81045684D03*
X139000000Y-90000000D03*
X136500000Y-79500000D03*
%TO.N,Net-(U4-U0TXD{slash}PROG{slash}GPIO43)*%
X154000000Y-84500000D03*
X150180000Y-85430000D03*
%TD*%
%TO.N,GND*%
D13*
X160961500Y-88126794D02*
X162588294Y-86500000D01*
D14*
X161500000Y-105000000D02*
X160500000Y-105000000D01*
X159500000Y-104000000D02*
X159500000Y-103000000D01*
X160500000Y-105000000D02*
X159500000Y-104000000D01*
D13*
X162588294Y-86500000D02*
X163000000Y-86500000D01*
X161000000Y-91000000D02*
X160961500Y-90961500D01*
X160961500Y-90961500D02*
X160961500Y-88126794D01*
%TO.N,RES*%
D14*
X146500000Y-97000000D02*
X146500000Y-100500000D01*
X147550000Y-94600000D02*
X147550000Y-95950000D01*
X147550000Y-95950000D02*
X146500000Y-97000000D01*
X147820000Y-94330000D02*
X147550000Y-94600000D01*
%TO.N,SCL*%
X141500000Y-78173000D02*
X136327000Y-78173000D01*
X141260938Y-80739062D02*
X141474000Y-80526000D01*
X139000000Y-91756123D02*
X135974000Y-88730123D01*
X141474000Y-80526000D02*
X141717877Y-80526000D01*
X135974000Y-88730123D02*
X135974000Y-78526000D01*
X141000000Y-80739062D02*
X141260938Y-80739062D01*
X135974000Y-78526000D02*
X136000000Y-78500000D01*
X142026000Y-78699000D02*
X141500000Y-78173000D01*
X139000000Y-93000000D02*
X139000000Y-91756123D01*
X141717877Y-80526000D02*
X142026000Y-80217877D01*
X142026000Y-80217877D02*
X142026000Y-78699000D01*
X136327000Y-78173000D02*
X136000000Y-78500000D01*
%TO.N,BTN1*%
X138576000Y-84424000D02*
X141000000Y-82000000D01*
X142001000Y-81282123D02*
X141974000Y-81255123D01*
X147500000Y-93000000D02*
X147000000Y-93500000D01*
X145000000Y-93500000D02*
X138576000Y-87076000D01*
X150717877Y-93526000D02*
X150026000Y-93526000D01*
X141692877Y-82026000D02*
X142001000Y-81717877D01*
X154500000Y-93000000D02*
X151243877Y-93000000D01*
X149500000Y-93000000D02*
X147500000Y-93000000D01*
X150026000Y-93526000D02*
X149500000Y-93000000D01*
X155026000Y-103526000D02*
X155026000Y-101769877D01*
X159500000Y-106225000D02*
X157725000Y-106225000D01*
X154974000Y-101717877D02*
X154974000Y-101282123D01*
X156000000Y-100256123D02*
X156000000Y-94500000D01*
X147000000Y-93500000D02*
X145000000Y-93500000D01*
X141974000Y-81255123D02*
X141974000Y-80695555D01*
X157725000Y-106225000D02*
X155026000Y-103526000D01*
X142551000Y-80118555D02*
X142551000Y-79475000D01*
X156000000Y-94500000D02*
X154500000Y-93000000D01*
X151243877Y-93000000D02*
X150717877Y-93526000D01*
X141026000Y-82026000D02*
X141692877Y-82026000D01*
X141000000Y-82000000D02*
X141026000Y-82026000D01*
X138576000Y-87076000D02*
X138576000Y-84424000D01*
X154974000Y-101282123D02*
X156000000Y-100256123D01*
X155026000Y-101769877D02*
X154974000Y-101717877D01*
X142001000Y-81717877D02*
X142001000Y-81282123D01*
X141974000Y-80695555D02*
X142551000Y-80118555D01*
%TO.N,BTN4*%
X140743877Y-80000000D02*
X141500000Y-80000000D01*
X137500000Y-94000000D02*
X139500000Y-94000000D01*
X130500000Y-106000000D02*
X130500000Y-101000000D01*
X137974000Y-84174644D02*
X140094880Y-82053764D01*
X140094880Y-82053764D02*
X140094880Y-81905120D01*
X140474000Y-80269877D02*
X140743877Y-80000000D01*
X140474000Y-81526000D02*
X140474000Y-80269877D01*
X139500000Y-94000000D02*
X139526000Y-93974000D01*
X130250000Y-106250000D02*
X130500000Y-106000000D01*
X137974000Y-87399678D02*
X137974000Y-84174644D01*
X139526000Y-88951678D02*
X137974000Y-87399678D01*
X140094880Y-81905120D02*
X140474000Y-81526000D01*
X139526000Y-93974000D02*
X139526000Y-88951678D01*
X130500000Y-101000000D02*
X137500000Y-94000000D01*
%TO.N,BTN3*%
X133500000Y-80500000D02*
X135000000Y-82000000D01*
X135500000Y-84243877D02*
X135526000Y-84217877D01*
X133500000Y-77000000D02*
X135474000Y-77000000D01*
X135526000Y-83782123D02*
X135500000Y-83756123D01*
X136500000Y-90000000D02*
X135500000Y-89000000D01*
X135526000Y-84217877D02*
X135526000Y-83782123D01*
X145000000Y-80000000D02*
X142526000Y-77526000D01*
X133500000Y-79000000D02*
X133500000Y-80500000D01*
X135000000Y-83000000D02*
X135000000Y-82000000D01*
X136000000Y-77526000D02*
X134974000Y-77526000D01*
X135500000Y-83756123D02*
X135500000Y-83500000D01*
X135500000Y-89000000D02*
X135500000Y-84243877D01*
X142526000Y-77526000D02*
X136000000Y-77526000D01*
X135474000Y-77000000D02*
X136000000Y-77526000D01*
X130000000Y-79625000D02*
X132875000Y-79625000D01*
X132875000Y-79625000D02*
X133500000Y-79000000D01*
X135500000Y-83500000D02*
X135000000Y-83000000D01*
X134974000Y-77526000D02*
X133500000Y-79000000D01*
%TO.N,ADC*%
X142526000Y-81026000D02*
X142500000Y-81000000D01*
X159750000Y-85750000D02*
X159750000Y-85500000D01*
X159000000Y-86500000D02*
X159750000Y-85750000D01*
X150717877Y-87526000D02*
X143526000Y-87526000D01*
X151743877Y-86500000D02*
X150717877Y-87526000D01*
X159000000Y-86500000D02*
X151743877Y-86500000D01*
X142526000Y-86474000D02*
X142526000Y-81026000D01*
X142526000Y-86474000D02*
X143526000Y-87474000D01*
X143526000Y-87474000D02*
X143526000Y-87526000D01*
%TO.N,STAT*%
X140699000Y-81875322D02*
X138451322Y-84123000D01*
X147124678Y-93801000D02*
X147199000Y-93801000D01*
X138275000Y-85225000D02*
X138275000Y-86951322D01*
X141150678Y-81725000D02*
X141124678Y-81699000D01*
X141475000Y-81500000D02*
X141475000Y-81725000D01*
X138275000Y-87200678D02*
X138275000Y-87275000D01*
X154500000Y-103500000D02*
X154500000Y-101330445D01*
X154375322Y-93301000D02*
X155037161Y-93962839D01*
X138275000Y-84299322D02*
X138275000Y-84548678D01*
X154500000Y-101330445D02*
X155665223Y-100165222D01*
X155665223Y-100165222D02*
X155699000Y-100131445D01*
X149901322Y-93827000D02*
X150150678Y-93827000D01*
X145124678Y-93801000D02*
X146875322Y-93801000D01*
X141124678Y-81699000D02*
X140875322Y-81699000D01*
X149301000Y-93301000D02*
X149827000Y-93827000D01*
X144875322Y-93801000D02*
X145124678Y-93801000D01*
X146875322Y-93801000D02*
X147124678Y-93801000D01*
X155699000Y-94624678D02*
X155037161Y-93962839D01*
X144801000Y-93801000D02*
X144875322Y-93801000D01*
X138275000Y-86951322D02*
X138275000Y-87200678D01*
X149827000Y-93827000D02*
X149901322Y-93827000D01*
X150593199Y-93827000D02*
X150842555Y-93827000D01*
X150150678Y-93827000D02*
X150593199Y-93827000D01*
X138275000Y-87275000D02*
X144801000Y-93801000D01*
X151368555Y-93301000D02*
X154375322Y-93301000D01*
X138451322Y-84123000D02*
X138275000Y-84299322D01*
X147199000Y-93801000D02*
X147699000Y-93301000D01*
X155699000Y-100131445D02*
X155699000Y-94624678D01*
X147699000Y-93301000D02*
X149301000Y-93301000D01*
X140875322Y-81699000D02*
X140699000Y-81875322D01*
X151018877Y-93650678D02*
X151368555Y-93301000D01*
X141475000Y-81725000D02*
X141150678Y-81725000D01*
X150842555Y-93827000D02*
X151018877Y-93650678D01*
X138275000Y-84548678D02*
X138275000Y-85225000D01*
%TO.N,Net-(U3-STAT)*%
X155526000Y-101526000D02*
X155500000Y-101500000D01*
X163500000Y-99000000D02*
X160974000Y-101526000D01*
X160974000Y-101526000D02*
X155526000Y-101526000D01*
%TO.N,BTN2*%
X160500000Y-77456273D02*
X160500000Y-78000000D01*
X143000000Y-81500000D02*
X144250000Y-80250000D01*
X161000000Y-84500000D02*
X158500000Y-84500000D01*
X142827000Y-85948000D02*
X142827000Y-81500000D01*
X150474000Y-87026000D02*
X144769877Y-87026000D01*
X151301000Y-86199000D02*
X150500000Y-87000000D01*
X156801000Y-86199000D02*
X151301000Y-86199000D01*
X142827000Y-81500000D02*
X143000000Y-81500000D01*
X144769877Y-87026000D02*
X143717877Y-85974000D01*
X161026000Y-84474000D02*
X161000000Y-84500000D01*
X158500000Y-84500000D02*
X156801000Y-86199000D01*
X159593727Y-76550000D02*
X160500000Y-77456273D01*
X142853000Y-85974000D02*
X142827000Y-85948000D01*
X135628000Y-77872000D02*
X135000000Y-78500000D01*
X143717877Y-85974000D02*
X142853000Y-85974000D01*
X150500000Y-87000000D02*
X150474000Y-87026000D01*
X159176000Y-76550000D02*
X159593727Y-76550000D01*
X160500000Y-78000000D02*
X161026000Y-78526000D01*
X141872000Y-77872000D02*
X135628000Y-77872000D01*
X161026000Y-78526000D02*
X161026000Y-84474000D01*
X141872000Y-77872000D02*
X144250000Y-80250000D01*
%TO.N,Net-(U4-U0RXD{slash}PROG{slash}GPIO44)*%
X153000000Y-83500000D02*
X153500000Y-83500000D01*
X151115000Y-85385000D02*
X153000000Y-83500000D01*
%TO.N,USB_DET*%
X144624678Y-92699000D02*
X140462839Y-88537161D01*
X140462839Y-88537161D02*
X141000000Y-88000000D01*
X150199000Y-92699000D02*
X144624678Y-92699000D01*
X150500000Y-93000000D02*
X150199000Y-92699000D01*
%TO.N,USB_D+*%
D15*
X141129232Y-87139232D02*
X141129232Y-87350000D01*
X154449000Y-91551000D02*
X154500000Y-91500000D01*
X141129232Y-87350000D02*
X141551000Y-87771768D01*
X145102000Y-91551000D02*
X154449000Y-91551000D01*
X141010000Y-86850000D02*
X141010000Y-87020000D01*
X141551000Y-88000000D02*
X145102000Y-91551000D01*
X141551000Y-87771768D02*
X141551000Y-88000000D01*
X141010000Y-87020000D02*
X141129232Y-87139232D01*
%TO.N,USB_D-*%
X141540000Y-86020000D02*
X143779232Y-88259232D01*
X143779232Y-88259232D02*
X143779232Y-88500000D01*
X143779232Y-88500000D02*
X145551000Y-90271768D01*
X150836800Y-90218422D02*
X150836800Y-90348800D01*
X151744000Y-90348800D02*
X151744000Y-90218422D01*
X154260000Y-90760000D02*
X154051000Y-90551000D01*
X145551000Y-90500000D02*
X145602000Y-90449000D01*
X151441600Y-90218422D02*
X151441600Y-90348800D01*
X152046400Y-90218422D02*
X152046400Y-90348800D01*
X153551000Y-90551000D02*
X153500000Y-90500000D01*
X154051000Y-90551000D02*
X153551000Y-90551000D01*
X150685600Y-90500000D02*
X145551000Y-90500000D01*
X153500000Y-90500000D02*
X152500000Y-90500000D01*
X152348800Y-90348800D02*
X152348800Y-90218422D01*
X141120000Y-86020000D02*
X141540000Y-86020000D01*
X145551000Y-90271768D02*
X145551000Y-90500000D01*
X151139200Y-90348800D02*
X151139200Y-90218422D01*
X151592800Y-90067222D02*
G75*
G03*
X151441622Y-90218422I0J-151178D01*
G01*
X152348800Y-90218422D02*
G75*
G03*
X152197600Y-90067200I-151200J22D01*
G01*
X151895200Y-90500000D02*
G75*
G02*
X151744000Y-90348800I0J151200D01*
G01*
X151290400Y-90500000D02*
G75*
G02*
X151139200Y-90348800I0J151200D01*
G01*
X151744000Y-90218422D02*
G75*
G03*
X151592800Y-90067200I-151200J22D01*
G01*
X152046400Y-90348800D02*
G75*
G02*
X151895200Y-90500000I-151200J0D01*
G01*
X150836800Y-90348800D02*
G75*
G02*
X150685600Y-90500000I-151200J0D01*
G01*
X151441600Y-90348800D02*
G75*
G02*
X151290400Y-90500000I-151200J0D01*
G01*
X152500000Y-90500000D02*
G75*
G02*
X152348800Y-90348800I0J151200D01*
G01*
X150988000Y-90067222D02*
G75*
G03*
X150836822Y-90218422I0J-151178D01*
G01*
X151139200Y-90218422D02*
G75*
G03*
X150988000Y-90067200I-151200J22D01*
G01*
X152197600Y-90067222D02*
G75*
G03*
X152046422Y-90218422I0J-151178D01*
G01*
%TO.N,SDA*%
D14*
X137324322Y-82675678D02*
X138473999Y-81526000D01*
X137324322Y-87175678D02*
X137324322Y-82675678D01*
X138740862Y-80000000D02*
X139786546Y-81045684D01*
X138473999Y-81526000D02*
X138717877Y-81526000D01*
X137000000Y-80000000D02*
X138740862Y-80000000D01*
X139000000Y-90000000D02*
X139000000Y-88851356D01*
X136500000Y-79500000D02*
X137000000Y-80000000D01*
X139000000Y-88851356D02*
X137324322Y-87175678D01*
X138717877Y-81526000D02*
X139198193Y-81045684D01*
X139198193Y-81045684D02*
X139786546Y-81045684D01*
%TO.N,Net-(U4-U0TXD{slash}PROG{slash}GPIO43)*%
X154026000Y-84474000D02*
X154000000Y-84500000D01*
X153717877Y-82474000D02*
X154026000Y-82782123D01*
X154026000Y-82782123D02*
X154026000Y-84474000D01*
X150234950Y-85484950D02*
X150271173Y-85484950D01*
X150180000Y-85430000D02*
X150234950Y-85484950D01*
X150271173Y-85484950D02*
X153282123Y-82474000D01*
X153282123Y-82474000D02*
X153717877Y-82474000D01*
%TD*%
M02*
