%TF.GenerationSoftware,KiCad,Pcbnew,10.0.2*%
%TF.CreationDate,2026-05-20T18:33:07+05:30*%
%TF.ProjectId,SmartWatch,536d6172-7457-4617-9463-682e6b696361,rev?*%
%TF.SameCoordinates,Original*%
%TF.FileFunction,Copper,L1,Top*%
%TF.FilePolarity,Positive*%
%FSLAX46Y46*%
G04 Gerber Fmt 4.6, Leading zero omitted, Abs format (unit mm)*
G04 Created by KiCad (PCBNEW 10.0.2) date 2026-05-20 18:33:07*
%MOMM*%
%LPD*%
G01*
G04 APERTURE LIST*
G04 Aperture macros list*
%AMRoundRect*
0 Rectangle with rounded corners*
0 $1 Rounding radius*
0 $2 $3 $4 $5 $6 $7 $8 $9 X,Y pos of 4 corners*
0 Add a 4 corners polygon primitive as box body*
4,1,4,$2,$3,$4,$5,$6,$7,$8,$9,$2,$3,0*
0 Add four circle primitives for the rounded corners*
1,1,$1+$1,$2,$3*
1,1,$1+$1,$4,$5*
1,1,$1+$1,$6,$7*
1,1,$1+$1,$8,$9*
0 Add four rect primitives between the rounded corners*
20,1,$1+$1,$2,$3,$4,$5,0*
20,1,$1+$1,$4,$5,$6,$7,0*
20,1,$1+$1,$6,$7,$8,$9,0*
20,1,$1+$1,$8,$9,$2,$3,0*%
%AMFreePoly0*
4,1,7,0.725000,0.000000,0.325000,0.000000,0.325000,-0.650000,-0.325000,-0.650000,-0.325000,0.650000,0.725000,0.650000,0.725000,0.000000,0.725000,0.000000,$1*%
%AMFreePoly1*
4,1,7,0.325000,-0.650000,-0.325000,-0.650000,-0.325000,0.000000,-0.725000,0.000000,-0.725000,0.650000,0.325000,0.650000,0.325000,-0.650000,0.325000,-0.650000,$1*%
G04 Aperture macros list end*
%TA.AperFunction,EtchedComponent*%
%ADD10C,0.000000*%
%TD*%
%TA.AperFunction,SMDPad,CuDef*%
%ADD11RoundRect,0.140000X0.170000X-0.140000X0.170000X0.140000X-0.170000X0.140000X-0.170000X-0.140000X0*%
%TD*%
%TA.AperFunction,SMDPad,CuDef*%
%ADD12RoundRect,0.135000X-0.185000X0.135000X-0.185000X-0.135000X0.185000X-0.135000X0.185000X0.135000X0*%
%TD*%
%TA.AperFunction,SMDPad,CuDef*%
%ADD13RoundRect,0.135000X0.185000X-0.135000X0.185000X0.135000X-0.185000X0.135000X-0.185000X-0.135000X0*%
%TD*%
%TA.AperFunction,SMDPad,CuDef*%
%ADD14RoundRect,0.135000X-0.135000X-0.185000X0.135000X-0.185000X0.135000X0.185000X-0.135000X0.185000X0*%
%TD*%
%TA.AperFunction,SMDPad,CuDef*%
%ADD15R,1.900000X1.100000*%
%TD*%
%TA.AperFunction,SMDPad,CuDef*%
%ADD16R,1.150000X1.000000*%
%TD*%
%TA.AperFunction,SMDPad,CuDef*%
%ADD17C,1.000000*%
%TD*%
%TA.AperFunction,SMDPad,CuDef*%
%ADD18R,0.910000X1.220000*%
%TD*%
%TA.AperFunction,SMDPad,CuDef*%
%ADD19RoundRect,0.140000X-0.170000X0.140000X-0.170000X-0.140000X0.170000X-0.140000X0.170000X0.140000X0*%
%TD*%
%TA.AperFunction,SMDPad,CuDef*%
%ADD20R,1.200000X0.600000*%
%TD*%
%TA.AperFunction,SMDPad,CuDef*%
%ADD21FreePoly0,90.000000*%
%TD*%
%TA.AperFunction,SMDPad,CuDef*%
%ADD22FreePoly1,90.000000*%
%TD*%
%TA.AperFunction,SMDPad,CuDef*%
%ADD23RoundRect,0.140000X0.140000X0.170000X-0.140000X0.170000X-0.140000X-0.170000X0.140000X-0.170000X0*%
%TD*%
%TA.AperFunction,SMDPad,CuDef*%
%ADD24RoundRect,0.140000X-0.140000X-0.170000X0.140000X-0.170000X0.140000X0.170000X-0.140000X0.170000X0*%
%TD*%
%TA.AperFunction,SMDPad,CuDef*%
%ADD25R,1.220000X0.910000*%
%TD*%
%TA.AperFunction,SMDPad,CuDef*%
%ADD26RoundRect,0.150000X0.150000X-0.587500X0.150000X0.587500X-0.150000X0.587500X-0.150000X-0.587500X0*%
%TD*%
%TA.AperFunction,SMDPad,CuDef*%
%ADD27R,0.300000X1.300000*%
%TD*%
%TA.AperFunction,SMDPad,CuDef*%
%ADD28R,2.000000X3.000000*%
%TD*%
%TA.AperFunction,SMDPad,CuDef*%
%ADD29R,2.900000X2.100000*%
%TD*%
%TA.AperFunction,SMDPad,CuDef*%
%ADD30R,1.600000X0.500000*%
%TD*%
%TA.AperFunction,SMDPad,CuDef*%
%ADD31FreePoly0,270.000000*%
%TD*%
%TA.AperFunction,SMDPad,CuDef*%
%ADD32FreePoly1,270.000000*%
%TD*%
%TA.AperFunction,SMDPad,CuDef*%
%ADD33RoundRect,0.150000X0.512500X0.150000X-0.512500X0.150000X-0.512500X-0.150000X0.512500X-0.150000X0*%
%TD*%
%TA.AperFunction,SMDPad,CuDef*%
%ADD34O,1.550000X1.000000*%
%TD*%
%TA.AperFunction,ComponentPad*%
%ADD35O,1.550000X1.000000*%
%TD*%
%TA.AperFunction,SMDPad,CuDef*%
%ADD36O,0.950000X1.250000*%
%TD*%
%TA.AperFunction,ComponentPad*%
%ADD37O,0.950000X1.250000*%
%TD*%
%TA.AperFunction,SMDPad,CuDef*%
%ADD38R,1.350000X0.400000*%
%TD*%
%TA.AperFunction,SMDPad,CuDef*%
%ADD39RoundRect,0.225000X-0.225000X-0.250000X0.225000X-0.250000X0.225000X0.250000X-0.225000X0.250000X0*%
%TD*%
%TA.AperFunction,SMDPad,CuDef*%
%ADD40RoundRect,0.014000X-0.361000X-0.161000X0.361000X-0.161000X0.361000X0.161000X-0.361000X0.161000X0*%
%TD*%
%TA.AperFunction,SMDPad,CuDef*%
%ADD41RoundRect,0.050000X-0.050000X0.387500X-0.050000X-0.387500X0.050000X-0.387500X0.050000X0.387500X0*%
%TD*%
%TA.AperFunction,SMDPad,CuDef*%
%ADD42RoundRect,0.050000X-0.387500X0.050000X-0.387500X-0.050000X0.387500X-0.050000X0.387500X0.050000X0*%
%TD*%
%TA.AperFunction,SMDPad,CuDef*%
%ADD43R,5.600000X5.600000*%
%TD*%
%TA.AperFunction,SMDPad,CuDef*%
%ADD44RoundRect,0.150000X-0.150000X0.587500X-0.150000X-0.587500X0.150000X-0.587500X0.150000X0.587500X0*%
%TD*%
%TA.AperFunction,SMDPad,CuDef*%
%ADD45RoundRect,0.250000X-0.300000X0.300000X-0.300000X-0.300000X0.300000X-0.300000X0.300000X0.300000X0*%
%TD*%
%TA.AperFunction,SMDPad,CuDef*%
%ADD46R,0.500000X0.500000*%
%TD*%
%TA.AperFunction,SMDPad,CuDef*%
%ADD47R,0.900000X0.500000*%
%TD*%
%TA.AperFunction,SMDPad,CuDef*%
%ADD48R,3.700000X1.200000*%
%TD*%
%TA.AperFunction,SMDPad,CuDef*%
%ADD49R,1.350000X1.500000*%
%TD*%
%TA.AperFunction,SMDPad,CuDef*%
%ADD50O,1.350000X1.500000*%
%TD*%
%TA.AperFunction,SMDPad,CuDef*%
%ADD51RoundRect,0.147500X-0.172500X0.147500X-0.172500X-0.147500X0.172500X-0.147500X0.172500X0.147500X0*%
%TD*%
%TA.AperFunction,SMDPad,CuDef*%
%ADD52R,0.375000X0.350000*%
%TD*%
%TA.AperFunction,SMDPad,CuDef*%
%ADD53R,0.350000X0.375000*%
%TD*%
%TA.AperFunction,SMDPad,CuDef*%
%ADD54RoundRect,0.135000X0.135000X0.185000X-0.135000X0.185000X-0.135000X-0.185000X0.135000X-0.185000X0*%
%TD*%
%TA.AperFunction,SMDPad,CuDef*%
%ADD55RoundRect,0.150000X-0.150000X0.512500X-0.150000X-0.512500X0.150000X-0.512500X0.150000X0.512500X0*%
%TD*%
%TA.AperFunction,SMDPad,CuDef*%
%ADD56R,0.200000X0.800000*%
%TD*%
%TA.AperFunction,ViaPad*%
%ADD57C,0.600000*%
%TD*%
%TA.AperFunction,Conductor*%
%ADD58C,0.250000*%
%TD*%
%TA.AperFunction,Conductor*%
%ADD59C,0.150000*%
%TD*%
%TA.AperFunction,Conductor*%
%ADD60C,0.254000*%
%TD*%
%TA.AperFunction,Conductor*%
%ADD61C,0.500000*%
%TD*%
%TA.AperFunction,Conductor*%
%ADD62C,0.200000*%
%TD*%
%TA.AperFunction,Conductor*%
%ADD63C,0.400000*%
%TD*%
%TA.AperFunction,Conductor*%
%ADD64C,0.320000*%
%TD*%
G04 APERTURE END LIST*
D10*
%TA.AperFunction,EtchedComponent*%
%TO.C,AE1*%
G36*
X136970000Y-75790000D02*
G01*
X136470000Y-75790000D01*
X136470000Y-71850000D01*
X136970000Y-71850000D01*
X136970000Y-75790000D01*
G37*
%TD.AperFunction*%
%TA.AperFunction,EtchedComponent*%
G36*
X139170000Y-71850000D02*
G01*
X136470000Y-71850000D01*
X136470000Y-71350000D01*
X139170000Y-71350000D01*
X139170000Y-71850000D01*
G37*
%TD.AperFunction*%
%TA.AperFunction,EtchedComponent*%
G36*
X139170000Y-74490000D02*
G01*
X138670000Y-74490000D01*
X138670000Y-71850000D01*
X139170000Y-71850000D01*
X139170000Y-74490000D01*
G37*
%TD.AperFunction*%
%TA.AperFunction,EtchedComponent*%
G36*
X141170000Y-74490000D02*
G01*
X139170000Y-74490000D01*
X139170000Y-73990000D01*
X141170000Y-73990000D01*
X141170000Y-74490000D01*
G37*
%TD.AperFunction*%
%TA.AperFunction,EtchedComponent*%
G36*
X141670000Y-74490000D02*
G01*
X141170000Y-74490000D01*
X141170000Y-71850000D01*
X141670000Y-71850000D01*
X141670000Y-74490000D01*
G37*
%TD.AperFunction*%
%TA.AperFunction,EtchedComponent*%
G36*
X143870000Y-71850000D02*
G01*
X141170000Y-71850000D01*
X141170000Y-71350000D01*
X143870000Y-71350000D01*
X143870000Y-71850000D01*
G37*
%TD.AperFunction*%
%TA.AperFunction,EtchedComponent*%
G36*
X143870000Y-74490000D02*
G01*
X143370000Y-74490000D01*
X143370000Y-71850000D01*
X143870000Y-71850000D01*
X143870000Y-74490000D01*
G37*
%TD.AperFunction*%
%TA.AperFunction,EtchedComponent*%
G36*
X145820000Y-74490000D02*
G01*
X143820000Y-74490000D01*
X143820000Y-73990000D01*
X145820000Y-73990000D01*
X145820000Y-74490000D01*
G37*
%TD.AperFunction*%
%TA.AperFunction,EtchedComponent*%
G36*
X146320000Y-74490000D02*
G01*
X145820000Y-74490000D01*
X145820000Y-71850000D01*
X146320000Y-71850000D01*
X146320000Y-74490000D01*
G37*
%TD.AperFunction*%
%TA.AperFunction,EtchedComponent*%
G36*
X148520000Y-76750000D02*
G01*
X148020000Y-76750000D01*
X148020000Y-71850000D01*
X148520000Y-71850000D01*
X148520000Y-76750000D01*
G37*
%TD.AperFunction*%
%TA.AperFunction,EtchedComponent*%
G36*
X150820000Y-71850000D02*
G01*
X145820000Y-71850000D01*
X145820000Y-71350000D01*
X150820000Y-71350000D01*
X150820000Y-71850000D01*
G37*
%TD.AperFunction*%
%TA.AperFunction,EtchedComponent*%
G36*
X150820000Y-76750000D02*
G01*
X149920000Y-76750000D01*
X149920000Y-71850000D01*
X150820000Y-71850000D01*
X150820000Y-76750000D01*
G37*
%TD.AperFunction*%
%TD*%
D11*
%TO.P,C22,1*%
%TO.N,PREVGH*%
X140580000Y-96930000D03*
%TO.P,C22,2*%
%TO.N,GND*%
X140580000Y-95970000D03*
%TD*%
D12*
%TO.P,R19,1*%
%TO.N,+3V3*%
X148637500Y-94990000D03*
%TO.P,R19,2*%
%TO.N,RES*%
X148637500Y-96010000D03*
%TD*%
D13*
%TO.P,R1,1*%
%TO.N,EN*%
X142000000Y-78510000D03*
%TO.P,R1,2*%
%TO.N,+3V3*%
X142000000Y-77490000D03*
%TD*%
D14*
%TO.P,R20,1*%
%TO.N,SCL*%
X138127500Y-79000000D03*
%TO.P,R20,2*%
%TO.N,+3V3*%
X139147500Y-79000000D03*
%TD*%
D11*
%TO.P,C24,1*%
%TO.N,Net-(J3-Pin_18)*%
X142880000Y-96920000D03*
%TO.P,C24,2*%
%TO.N,GND*%
X142880000Y-95960000D03*
%TD*%
D15*
%TO.P,Y1,1,1_1*%
%TO.N,/32K_P*%
X138900000Y-83760000D03*
%TO.P,Y1,2,2_2*%
%TO.N,/32K_N*%
X138900000Y-86260000D03*
%TD*%
D11*
%TO.P,C6,1*%
%TO.N,+3V3*%
X150637500Y-81980000D03*
%TO.P,C6,2*%
%TO.N,GND*%
X150637500Y-81020000D03*
%TD*%
%TO.P,C1,1*%
%TO.N,+3V3*%
X153310000Y-81970000D03*
%TO.P,C1,2*%
%TO.N,GND*%
X153310000Y-81010000D03*
%TD*%
D14*
%TO.P,R4,1*%
%TO.N,BTN1*%
X161627500Y-108500000D03*
%TO.P,R4,2*%
%TO.N,+3V3*%
X162647500Y-108500000D03*
%TD*%
%TO.P,R11,1*%
%TO.N,BTN4*%
X127627500Y-109000000D03*
%TO.P,R11,2*%
%TO.N,+3V3*%
X128647500Y-109000000D03*
%TD*%
D16*
%TO.P,Y2,1,1_1*%
%TO.N,/40M_P*%
X152512500Y-88300000D03*
%TO.P,Y2,2,2_2*%
%TO.N,GND*%
X150762500Y-88300000D03*
%TO.P,Y2,3,3_3*%
%TO.N,/40M_N*%
X150762500Y-89700000D03*
%TO.P,Y2,4,4_4*%
%TO.N,GND*%
X152512500Y-89700000D03*
%TD*%
D17*
%TO.P,TP4,1,1_1*%
%TO.N,+3V3*%
X153500000Y-107000000D03*
%TD*%
D18*
%TO.P,D1,1,K_1*%
%TO.N,Net-(D1-K)*%
X154002500Y-93000000D03*
%TO.P,D1,2,A_2*%
%TO.N,VBUS*%
X157272500Y-93000000D03*
%TD*%
D19*
%TO.P,C29,1*%
%TO.N,GND*%
X138270000Y-96480000D03*
%TO.P,C29,2*%
%TO.N,PREVGL*%
X138270000Y-97440000D03*
%TD*%
D20*
%TO.P,SW3,1,A_1*%
%TO.N,BTN3*%
X127810000Y-80090000D03*
%TO.P,SW3,2,B_2*%
%TO.N,GND*%
X127810000Y-76690000D03*
D21*
%TO.P,SW3,MP*%
X125860000Y-80715000D03*
D22*
X125860000Y-76065000D03*
%TD*%
D14*
%TO.P,R12,1*%
%TO.N,Net-(U4-XTAL_P)*%
X150617500Y-83000000D03*
%TO.P,R12,2*%
%TO.N,/40M_P*%
X151637500Y-83000000D03*
%TD*%
D12*
%TO.P,R2,1*%
%TO.N,VBUS*%
X157500000Y-102490000D03*
%TO.P,R2,2*%
%TO.N,GND*%
X157500000Y-103510000D03*
%TD*%
D23*
%TO.P,C7,1*%
%TO.N,Net-(AE1-FEED)*%
X146980000Y-77500000D03*
%TO.P,C7,2*%
%TO.N,GND*%
X146020000Y-77500000D03*
%TD*%
D24*
%TO.P,C11,1*%
%TO.N,ADC*%
X162177500Y-85500000D03*
%TO.P,C11,2*%
%TO.N,GND*%
X163137500Y-85500000D03*
%TD*%
D13*
%TO.P,R6,1*%
%TO.N,STAT*%
X155500000Y-103510000D03*
%TO.P,R6,2*%
%TO.N,Net-(U3-STAT)*%
X155500000Y-102490000D03*
%TD*%
D25*
%TO.P,D3,1,K_1*%
%TO.N,Net-(D3-K)*%
X127137500Y-101135000D03*
%TO.P,D3,2,A_2*%
%TO.N,PREVGL*%
X127137500Y-97865000D03*
%TD*%
D17*
%TO.P,TP4,1,1*%
%TO.N,+3V3*%
X144950000Y-92300000D03*
%TD*%
D14*
%TO.P,R9,1*%
%TO.N,ADC*%
X162117500Y-84500000D03*
%TO.P,R9,2*%
%TO.N,GND*%
X163137500Y-84500000D03*
%TD*%
D26*
%TO.P,Q2,1,B_1*%
%TO.N,Net-(Q2-B)*%
X132125000Y-84375000D03*
%TO.P,Q2,2,E_2*%
%TO.N,GND*%
X134025000Y-84375000D03*
%TO.P,Q2,3,C_3*%
%TO.N,Net-(D2-A)*%
X133075000Y-82500000D03*
%TD*%
D20*
%TO.P,SW4,1,A_1*%
%TO.N,BTN4*%
X127800000Y-106710000D03*
%TO.P,SW4,2,B_2*%
%TO.N,GND*%
X127800000Y-103310000D03*
D21*
%TO.P,SW4,MP*%
X125850000Y-107335000D03*
D22*
X125850000Y-102685000D03*
%TD*%
D11*
%TO.P,C26,1*%
%TO.N,Net-(J3-Pin_22)*%
X139430000Y-97430000D03*
%TO.P,C26,2*%
%TO.N,GND*%
X139430000Y-96470000D03*
%TD*%
D13*
%TO.P,R16,1*%
%TO.N,GDR*%
X151637500Y-96010000D03*
%TO.P,R16,2*%
%TO.N,GND*%
X151637500Y-94990000D03*
%TD*%
D27*
%TO.P,J3,1,Pin_1_1*%
%TO.N,unconnected-(J3-Pin_1-Pad1)*%
X151137500Y-99000000D03*
%TO.P,J3,2,Pin_2_2*%
%TO.N,GDR*%
X150637500Y-99000000D03*
%TO.P,J3,3,Pin_3_3*%
%TO.N,RESE*%
X150137500Y-99000000D03*
%TO.P,J3,4,Pin_4_4*%
%TO.N,unconnected-(J3-Pin_4-Pad4)*%
X149637500Y-99000000D03*
%TO.P,J3,5,Pin_5_5*%
%TO.N,Net-(J3-Pin_5)*%
X149137500Y-99000000D03*
%TO.P,J3,6,Pin_6_6*%
%TO.N,unconnected-(J3-Pin_6-Pad6)*%
X148637500Y-99000000D03*
%TO.P,J3,7,Pin_7_7*%
%TO.N,unconnected-(J3-Pin_7-Pad7)*%
X148137500Y-99000000D03*
%TO.P,J3,8,Pin_8_8*%
%TO.N,GND*%
X147637500Y-99000000D03*
%TO.P,J3,9,Pin_9_9*%
%TO.N,BUSY*%
X147137500Y-99000000D03*
%TO.P,J3,10,Pin_10_10*%
%TO.N,RES*%
X146637500Y-99000000D03*
%TO.P,J3,11,Pin_11_11*%
%TO.N,DC*%
X146137500Y-99000000D03*
%TO.P,J3,12,Pin_12_12*%
%TO.N,CS*%
X145637500Y-99000000D03*
%TO.P,J3,13,Pin_13_13*%
%TO.N,SCK*%
X145137500Y-99000000D03*
%TO.P,J3,14,Pin_14_14*%
%TO.N,MOSI*%
X144637500Y-99000000D03*
%TO.P,J3,15,Pin_15_15*%
%TO.N,+3V3*%
X144137500Y-99000000D03*
%TO.P,J3,16,Pin_16_16*%
X143637500Y-99000000D03*
%TO.P,J3,17,Pin_17_17*%
%TO.N,GND*%
X143137500Y-99000000D03*
%TO.P,J3,18,Pin_18_18*%
%TO.N,Net-(J3-Pin_18)*%
X142637500Y-99000000D03*
%TO.P,J3,19,Pin_19_19*%
%TO.N,unconnected-(J3-Pin_19-Pad19)*%
X142137500Y-99000000D03*
%TO.P,J3,20,Pin_20_20*%
%TO.N,Net-(J3-Pin_20)*%
X141637500Y-99000000D03*
%TO.P,J3,21,Pin_21_21*%
%TO.N,PREVGH*%
X141137500Y-99000000D03*
%TO.P,J3,22,Pin_22_22*%
%TO.N,Net-(J3-Pin_22)*%
X140637500Y-99000000D03*
%TO.P,J3,23,Pin_23_23*%
%TO.N,PREVGL*%
X140137500Y-99000000D03*
%TO.P,J3,24,Pin_24_24*%
%TO.N,Net-(J3-Pin_24)*%
X139637500Y-99000000D03*
D28*
%TO.P,J3,M*%
%TO.N,N/C*%
X137987500Y-101350000D03*
X152787500Y-101350000D03*
%TD*%
D11*
%TO.P,C5,1*%
%TO.N,+3V3*%
X145000000Y-78480000D03*
%TO.P,C5,2*%
%TO.N,GND*%
X145000000Y-77520000D03*
%TD*%
D29*
%TO.P,J1,*%
%TO.N,*%
X157500000Y-85032000D03*
X157500000Y-78700000D03*
D30*
%TO.P,J1,1,Pin_1_1*%
%TO.N,+BATT*%
X160350000Y-82500000D03*
%TO.P,J1,2,Pin_2_2*%
%TO.N,GND*%
X160350000Y-81250000D03*
%TD*%
D20*
%TO.P,SW1,1,A_1*%
%TO.N,BTN2*%
X162200000Y-76080000D03*
%TO.P,SW1,2,B_2*%
%TO.N,GND*%
X162200000Y-79480000D03*
D31*
%TO.P,SW1,MP*%
X164150000Y-75455000D03*
D32*
X164150000Y-80105000D03*
%TD*%
D33*
%TO.P,U2,1,VIN_1*%
%TO.N,Net-(D1-K)*%
X156775000Y-96950000D03*
%TO.P,U2,2,GND_2*%
%TO.N,GND*%
X156775000Y-96000000D03*
%TO.P,U2,3,EN_3*%
%TO.N,Net-(D1-K)*%
X156775000Y-95050000D03*
%TO.P,U2,4,NC_4*%
%TO.N,unconnected-(U2-NC-Pad4)*%
X154500000Y-95050000D03*
%TO.P,U2,5,VOUT_5*%
%TO.N,+3V3*%
X154500000Y-96950000D03*
%TD*%
D19*
%TO.P,C14,1*%
%TO.N,+3V3*%
X133500000Y-80020000D03*
%TO.P,C14,2*%
%TO.N,Net-(D2-A)*%
X133500000Y-80980000D03*
%TD*%
D34*
%TO.P,J2,*%
%TO.N,GND*%
X162137500Y-95500000D03*
D35*
X162137500Y-95500000D03*
D36*
X159437500Y-94500000D03*
D37*
X159437500Y-94500000D03*
D36*
X159437500Y-89500000D03*
D37*
X159437500Y-89500000D03*
D34*
X162137500Y-88500000D03*
D35*
X162137500Y-88500000D03*
D38*
%TO.P,J2,1,VBUS_1*%
%TO.N,VBUS*%
X159437500Y-93300000D03*
%TO.P,J2,2,D-_2*%
%TO.N,DN*%
X159437500Y-92650000D03*
%TO.P,J2,3,D+_3*%
%TO.N,DP*%
X159437500Y-92000000D03*
%TO.P,J2,4,ID_4*%
%TO.N,unconnected-(J2-ID-Pad4)*%
X159437500Y-91350000D03*
%TO.P,J2,5,GND_5*%
%TO.N,GND*%
X159437500Y-90700000D03*
%TD*%
D17*
%TO.P,TP3,1,1_1*%
%TO.N,BTN3*%
X137700000Y-88650000D03*
%TD*%
D23*
%TO.P,C12,1*%
%TO.N,VBUS*%
X157617500Y-88000000D03*
%TO.P,C12,2*%
%TO.N,GND*%
X156657500Y-88000000D03*
%TD*%
D24*
%TO.P,C15,1*%
%TO.N,VDD*%
X143137500Y-90500000D03*
%TO.P,C15,2*%
%TO.N,GND*%
X144097500Y-90500000D03*
%TD*%
D11*
%TO.P,C4,1*%
%TO.N,+3V3*%
X151637500Y-81980000D03*
%TO.P,C4,2*%
%TO.N,GND*%
X151637500Y-81020000D03*
%TD*%
D39*
%TO.P,C21,1*%
%TO.N,Net-(D3-K)*%
X131087500Y-103000000D03*
%TO.P,C21,2*%
%TO.N,Net-(D5-A)*%
X132637500Y-103000000D03*
%TD*%
D24*
%TO.P,C9,1*%
%TO.N,Net-(U4-LNA_IN{slash}RF)*%
X149170000Y-78750000D03*
%TO.P,C9,2*%
%TO.N,GND*%
X150130000Y-78750000D03*
%TD*%
D13*
%TO.P,R3,1*%
%TO.N,GND*%
X158500000Y-103510000D03*
%TO.P,R3,2*%
%TO.N,Net-(U3-PROG)*%
X158500000Y-102490000D03*
%TD*%
D25*
%TO.P,D5,1,K_1*%
%TO.N,PREVGH*%
X132000000Y-97865000D03*
%TO.P,D5,2,A_2*%
%TO.N,Net-(D5-A)*%
X132000000Y-101135000D03*
%TD*%
D17*
%TO.P,TP2,1,1_1*%
%TO.N,Net-(U4-U0RXD{slash}PROG{slash}GPIO44)*%
X155137500Y-83000000D03*
%TD*%
D12*
%TO.P,R14,1*%
%TO.N,VBUS*%
X152637500Y-91990000D03*
%TO.P,R14,2*%
%TO.N,USB_DET*%
X152637500Y-93010000D03*
%TD*%
D11*
%TO.P,C2,1*%
%TO.N,EN*%
X143000000Y-78480000D03*
%TO.P,C2,2*%
%TO.N,GND*%
X143000000Y-77520000D03*
%TD*%
D40*
%TO.P,U5,1,I/O1_1*%
%TO.N,USB_D+*%
X155810000Y-89500000D03*
%TO.P,U5,2,GND_2*%
%TO.N,GND*%
X155810000Y-90000000D03*
%TO.P,U5,3,I/O2_3*%
%TO.N,USB_D-*%
X155810000Y-90500000D03*
%TO.P,U5,4,I/O2_4*%
%TO.N,DN*%
X157190000Y-90500000D03*
%TO.P,U5,5,VBUS_5*%
%TO.N,VBUS*%
X157190000Y-90000000D03*
%TO.P,U5,6,I/O1_6*%
%TO.N,DP*%
X157190000Y-89500000D03*
%TD*%
D11*
%TO.P,C19,1*%
%TO.N,/40M_N*%
X149137500Y-90480000D03*
%TO.P,C19,2*%
%TO.N,GND*%
X149137500Y-89520000D03*
%TD*%
D12*
%TO.P,R18,1*%
%TO.N,SDA*%
X136637500Y-80490000D03*
%TO.P,R18,2*%
%TO.N,+3V3*%
X136637500Y-81510000D03*
%TD*%
D17*
%TO.P,TP5,1,1_1*%
%TO.N,GND*%
X153000000Y-109000000D03*
%TD*%
D11*
%TO.P,C3,1*%
%TO.N,+3V3*%
X144000000Y-78480000D03*
%TO.P,C3,2*%
%TO.N,GND*%
X144000000Y-77520000D03*
%TD*%
D17*
%TO.P,TP6,1,1_1*%
%TO.N,SCL*%
X140500000Y-93000000D03*
%TD*%
D41*
%TO.P,U4,1,LNA_IN/RF_1*%
%TO.N,Net-(U4-LNA_IN{slash}RF)*%
X148300000Y-81362500D03*
%TO.P,U4,2,VDD3P3_2*%
%TO.N,+3V3*%
X147900000Y-81362500D03*
%TO.P,U4,3,VDD3P3_3*%
X147500000Y-81362500D03*
%TO.P,U4,4,CHIP_PU/RESET_4*%
%TO.N,EN*%
X147100000Y-81362500D03*
%TO.P,U4,5,GPIO0/BOOT_5*%
%TO.N,BTN3*%
X146700000Y-81362500D03*
%TO.P,U4,6,GPIO1/ADC1_CH0_6*%
%TO.N,unconnected-(U4-GPIO1{slash}ADC1_CH0-Pad6)*%
X146300000Y-81362500D03*
%TO.P,U4,7,GPIO2/ADC1_CH1_7*%
%TO.N,unconnected-(U4-GPIO2{slash}ADC1_CH1-Pad7)*%
X145900000Y-81362500D03*
%TO.P,U4,8,GPIO3/ADC1_CH2_8*%
%TO.N,unconnected-(U4-GPIO3{slash}ADC1_CH2-Pad8)*%
X145500000Y-81362500D03*
%TO.P,U4,9,GPIO4/ADC1_CH3_9*%
%TO.N,unconnected-(U4-GPIO4{slash}ADC1_CH3-Pad9)*%
X145100000Y-81362500D03*
%TO.P,U4,10,GPIO5/ADC1_CH4_10*%
%TO.N,unconnected-(U4-GPIO5{slash}ADC1_CH4-Pad10)*%
X144700000Y-81362500D03*
%TO.P,U4,11,GPIO6/ADC1_CH5_11*%
%TO.N,BTN2*%
X144300000Y-81362500D03*
%TO.P,U4,12,GPIO7/ADC1_CH6_12*%
%TO.N,BTN1*%
X143900000Y-81362500D03*
%TO.P,U4,13,GPIO8/ADC1_CH7_13*%
%TO.N,BTN4*%
X143500000Y-81362500D03*
%TO.P,U4,14,GPIO9/ADC1_CH8_14*%
%TO.N,ADC*%
X143100000Y-81362500D03*
D42*
%TO.P,U4,15,GPIO10/ADC1_CH9_15*%
%TO.N,STAT*%
X142262500Y-82200000D03*
%TO.P,U4,16,GPIO11/ADC2_CH0_16*%
%TO.N,SCL*%
X142262500Y-82600000D03*
%TO.P,U4,17,GPIO12/ADC2_CH1_17*%
%TO.N,SDA*%
X142262500Y-83000000D03*
%TO.P,U4,18,GPIO13/ADC2_CH2_18*%
%TO.N,ACC_INT_2*%
X142262500Y-83400000D03*
%TO.P,U4,19,GPIO14/ADC2_CH3_19*%
%TO.N,ACC_INT_1*%
X142262500Y-83800000D03*
%TO.P,U4,20,VDD3P3_RTC_20*%
%TO.N,+3V3*%
X142262500Y-84200000D03*
%TO.P,U4,21,GPIO15/ADC2_CH4/XTAL_32K_P_21*%
%TO.N,/32K_P*%
X142262500Y-84600000D03*
%TO.P,U4,22,GPIO16/ADC2_CH5/XTAL_32K_N_22*%
%TO.N,/32K_N*%
X142262500Y-85000000D03*
%TO.P,U4,23,GPIO17/ADC2_CH6/DAC_2_23*%
%TO.N,VIB_PWM*%
X142262500Y-85400000D03*
%TO.P,U4,24,GPIO18/ADC2_CH7/DAC_1_24*%
%TO.N,unconnected-(U4-GPIO18{slash}ADC2_CH7{slash}DAC_1-Pad24)*%
X142262500Y-85800000D03*
%TO.P,U4,25,GPIO19/USB_D-/ADC2_CH8_25*%
%TO.N,USB_D-*%
X142262500Y-86200000D03*
%TO.P,U4,26,GPIO20/USB_D+/ADC2_CH9_26*%
%TO.N,USB_D+*%
X142262500Y-86600000D03*
%TO.P,U4,27,GPIO21_27*%
%TO.N,USB_DET*%
X142262500Y-87000000D03*
%TO.P,U4,28,SPI_CS1/GPIO26_28*%
%TO.N,unconnected-(U4-SPI_CS1{slash}GPIO26-Pad28)*%
X142262500Y-87400000D03*
D41*
%TO.P,U4,29,VDD_SPI_29*%
%TO.N,VDD*%
X143100000Y-88237500D03*
%TO.P,U4,30,SPIHD/GPIO27_30*%
%TO.N,unconnected-(U4-SPIHD{slash}GPIO27-Pad30)*%
X143500000Y-88237500D03*
%TO.P,U4,31,SPIWP/GPIO28_31*%
%TO.N,unconnected-(U4-SPIWP{slash}GPIO28-Pad31)*%
X143900000Y-88237500D03*
%TO.P,U4,32,SPICS0/GPIO29_32*%
%TO.N,unconnected-(U4-SPICS0{slash}GPIO29-Pad32)*%
X144300000Y-88237500D03*
%TO.P,U4,33,SPICLK/GPIO30_33*%
%TO.N,unconnected-(U4-SPICLK{slash}GPIO30-Pad33)*%
X144700000Y-88237500D03*
%TO.P,U4,34,SPIQ/GPIO31_34*%
%TO.N,unconnected-(U4-SPIQ{slash}GPIO31-Pad34)*%
X145100000Y-88237500D03*
%TO.P,U4,35,SPID/GPIO32_35*%
%TO.N,unconnected-(U4-SPID{slash}GPIO32-Pad35)*%
X145500000Y-88237500D03*
%TO.P,U4,36,SPICLK_N/GPIO48_36*%
%TO.N,MOSI*%
X145900000Y-88237500D03*
%TO.P,U4,37,SPICLK_P/GPIO47_37*%
%TO.N,SCK*%
X146300000Y-88237500D03*
%TO.P,U4,38,GPIO33_38*%
%TO.N,CS*%
X146700000Y-88237500D03*
%TO.P,U4,39,GPIO34_39*%
%TO.N,DC*%
X147100000Y-88237500D03*
%TO.P,U4,40,GPIO35_40*%
%TO.N,RES*%
X147500000Y-88237500D03*
%TO.P,U4,41,GPIO36_41*%
%TO.N,BUSY*%
X147900000Y-88237500D03*
%TO.P,U4,42,GPIO37_42*%
%TO.N,unconnected-(U4-GPIO37-Pad42)*%
X148300000Y-88237500D03*
D42*
%TO.P,U4,43,GPIO38_43*%
%TO.N,unconnected-(U4-GPIO38-Pad43)*%
X149137500Y-87400000D03*
%TO.P,U4,44,MTCK/JTAG/GPIO39_44*%
%TO.N,unconnected-(U4-MTCK{slash}JTAG{slash}GPIO39-Pad44)*%
X149137500Y-87000000D03*
%TO.P,U4,45,MTDO/JTAG/GPIO40_45*%
%TO.N,unconnected-(U4-MTDO{slash}JTAG{slash}GPIO40-Pad45)*%
X149137500Y-86600000D03*
%TO.P,U4,46,VDD3P3_CPU_46*%
%TO.N,+3V3*%
X149137500Y-86200000D03*
%TO.P,U4,47,MTDI/JTAG/GPIO41_47*%
%TO.N,unconnected-(U4-MTDI{slash}JTAG{slash}GPIO41-Pad47)*%
X149137500Y-85800000D03*
%TO.P,U4,48,MTMS/JTAG/GPIO42_48*%
%TO.N,unconnected-(U4-MTMS{slash}JTAG{slash}GPIO42-Pad48)*%
X149137500Y-85400000D03*
%TO.P,U4,49,U0TXD/PROG/GPIO43_49*%
%TO.N,Net-(U4-U0TXD{slash}PROG{slash}GPIO43)*%
X149137500Y-85000000D03*
%TO.P,U4,50,U0RXD/PROG/GPIO44_50*%
%TO.N,Net-(U4-U0RXD{slash}PROG{slash}GPIO44)*%
X149137500Y-84600000D03*
%TO.P,U4,51,GPIO45_51*%
%TO.N,unconnected-(U4-GPIO45-Pad51)*%
X149137500Y-84200000D03*
%TO.P,U4,52,GPIO46_52*%
%TO.N,unconnected-(U4-GPIO46-Pad52)*%
X149137500Y-83800000D03*
%TO.P,U4,53,XTAL_N_53*%
%TO.N,/40M_N*%
X149137500Y-83400000D03*
%TO.P,U4,54,XTAL_P_54*%
%TO.N,Net-(U4-XTAL_P)*%
X149137500Y-83000000D03*
%TO.P,U4,55,VDDA_55*%
%TO.N,+3V3*%
X149137500Y-82600000D03*
%TO.P,U4,56,VDDA_56*%
X149137500Y-82200000D03*
D43*
%TO.P,U4,57,GND_57*%
%TO.N,GND*%
X145700000Y-84800000D03*
%TD*%
D19*
%TO.P,C16,1*%
%TO.N,/40M_P*%
X154137500Y-88000000D03*
%TO.P,C16,2*%
%TO.N,GND*%
X154137500Y-88960000D03*
%TD*%
D44*
%TO.P,Q3,1,G_1*%
%TO.N,GDR*%
X157500000Y-106062500D03*
%TO.P,Q3,2,S_2*%
%TO.N,RESE*%
X155600000Y-106062500D03*
%TO.P,Q3,3,D_3*%
%TO.N,Net-(D5-A)*%
X156550000Y-107937500D03*
%TD*%
D11*
%TO.P,C25,1*%
%TO.N,Net-(J3-Pin_20)*%
X141720000Y-96920000D03*
%TO.P,C25,2*%
%TO.N,GND*%
X141720000Y-95960000D03*
%TD*%
D13*
%TO.P,R15,1*%
%TO.N,USB_DET*%
X151637500Y-93010000D03*
%TO.P,R15,2*%
%TO.N,GND*%
X151637500Y-91990000D03*
%TD*%
D25*
%TO.P,D4,1,K_1*%
%TO.N,GND*%
X129500000Y-97865000D03*
%TO.P,D4,2,A_2*%
%TO.N,Net-(D3-K)*%
X129500000Y-101135000D03*
%TD*%
D45*
%TO.P,D2,1,K_1*%
%TO.N,+3V3*%
X131800000Y-77700000D03*
%TO.P,D2,2,A_2*%
%TO.N,Net-(D2-A)*%
X131800000Y-80500000D03*
%TD*%
D46*
%TO.P,AE1,1,FEED_1*%
%TO.N,Net-(AE1-FEED)*%
X148270000Y-76500000D03*
D47*
%TO.P,AE1,2,PCB_Trace_2*%
%TO.N,GND*%
X150370000Y-76500000D03*
%TD*%
D12*
%TO.P,R10,1*%
%TO.N,BTN3*%
X133500000Y-77990000D03*
%TO.P,R10,2*%
%TO.N,+3V3*%
X133500000Y-79010000D03*
%TD*%
D48*
%TO.P,L2,1,1_1*%
%TO.N,Net-(D5-A)*%
X133000000Y-104600000D03*
%TO.P,L2,2,2_2*%
%TO.N,+3V3*%
X133000000Y-107400000D03*
%TD*%
D23*
%TO.P,C17,1*%
%TO.N,/32K_P*%
X136950000Y-83990000D03*
%TO.P,C17,2*%
%TO.N,GND*%
X135990000Y-83990000D03*
%TD*%
D11*
%TO.P,C23,1*%
%TO.N,Net-(J3-Pin_5)*%
X149637500Y-95980000D03*
%TO.P,C23,2*%
%TO.N,GND*%
X149637500Y-95020000D03*
%TD*%
D12*
%TO.P,R5,1*%
%TO.N,VBUS*%
X156500000Y-102500000D03*
%TO.P,R5,2*%
%TO.N,STAT*%
X156500000Y-103520000D03*
%TD*%
D49*
%TO.P,M1,1,+_1*%
%TO.N,+3V3*%
X127637500Y-83000000D03*
D50*
%TO.P,M1,2,-_2*%
%TO.N,Net-(D2-A)*%
X129637500Y-83000000D03*
%TD*%
D51*
%TO.P,L1,1,1_1*%
%TO.N,Net-(AE1-FEED)*%
X148250000Y-77665000D03*
%TO.P,L1,2,2_2*%
%TO.N,Net-(U4-LNA_IN{slash}RF)*%
X148250000Y-78635000D03*
%TD*%
D52*
%TO.P,U6,1,SDO_1*%
%TO.N,GND*%
X137625000Y-80250000D03*
%TO.P,U6,2,SDX_2*%
%TO.N,SDA*%
X137625000Y-80750000D03*
%TO.P,U6,3,VDDIO_3*%
%TO.N,+3V3*%
X137625000Y-81250000D03*
%TO.P,U6,4,ASDA_4*%
%TO.N,unconnected-(U6-ASDA-Pad4)*%
X137625000Y-81750000D03*
D53*
%TO.P,U6,5,INT1_5*%
%TO.N,ACC_INT_1*%
X138137500Y-81762500D03*
%TO.P,U6,6,INT2_6*%
%TO.N,ACC_INT_2*%
X138637500Y-81762500D03*
D52*
%TO.P,U6,7,VDD_7*%
%TO.N,+3V3*%
X139150000Y-81750000D03*
%TO.P,U6,8,GNDIO_8*%
%TO.N,GND*%
X139150000Y-81250000D03*
%TO.P,U6,9,GND_9*%
X139150000Y-80750000D03*
%TO.P,U6,10,CSB_10*%
%TO.N,+3V3*%
X139150000Y-80250000D03*
D53*
%TO.P,U6,11,ASCL_11*%
%TO.N,unconnected-(U6-ASCL-Pad11)*%
X138637500Y-80237500D03*
%TO.P,U6,12,SCX_12*%
%TO.N,SCL*%
X138137500Y-80237500D03*
%TD*%
D11*
%TO.P,C28,1*%
%TO.N,+3V3*%
X143990000Y-96910000D03*
%TO.P,C28,2*%
%TO.N,GND*%
X143990000Y-95950000D03*
%TD*%
%TO.P,C10,1*%
%TO.N,+3V3*%
X152880000Y-95970000D03*
%TO.P,C10,2*%
%TO.N,GND*%
X152880000Y-95010000D03*
%TD*%
D39*
%TO.P,C20,1*%
%TO.N,+3V3*%
X131450000Y-109000000D03*
%TO.P,C20,2*%
%TO.N,GND*%
X133000000Y-109000000D03*
%TD*%
D14*
%TO.P,R13,1*%
%TO.N,Net-(Q2-B)*%
X135960000Y-86030000D03*
%TO.P,R13,2*%
%TO.N,VIB_PWM*%
X136980000Y-86030000D03*
%TD*%
D24*
%TO.P,C13,1*%
%TO.N,VDD*%
X143177500Y-89500000D03*
%TO.P,C13,2*%
%TO.N,GND*%
X144137500Y-89500000D03*
%TD*%
D11*
%TO.P,C27,1*%
%TO.N,Net-(J3-Pin_24)*%
X137100000Y-97450000D03*
%TO.P,C27,2*%
%TO.N,GND*%
X137100000Y-96490000D03*
%TD*%
D13*
%TO.P,R7,1*%
%TO.N,BTN2*%
X152000000Y-86510000D03*
%TO.P,R7,2*%
%TO.N,+3V3*%
X152000000Y-85490000D03*
%TD*%
D20*
%TO.P,SW2,1,A_1*%
%TO.N,BTN1*%
X162190000Y-103285000D03*
%TO.P,SW2,2,B_2*%
%TO.N,GND*%
X162190000Y-106685000D03*
D31*
%TO.P,SW2,MP*%
X164140000Y-102660000D03*
D32*
X164140000Y-107310000D03*
%TD*%
D54*
%TO.P,R8,1*%
%TO.N,+BATT*%
X163147500Y-83500000D03*
%TO.P,R8,2*%
%TO.N,ADC*%
X162127500Y-83500000D03*
%TD*%
D17*
%TO.P,TP5,1,1*%
%TO.N,GND*%
X142500000Y-92500000D03*
%TD*%
D55*
%TO.P,U3,1,STAT_1*%
%TO.N,Net-(U3-STAT)*%
X162500000Y-98725000D03*
%TO.P,U3,2,V_{SS}_2*%
%TO.N,GND*%
X161550000Y-98725000D03*
%TO.P,U3,3,V_{BAT}_3*%
%TO.N,+BATT*%
X160600000Y-98725000D03*
%TO.P,U3,4,V_{DD}_4*%
%TO.N,VBUS*%
X160600000Y-101000000D03*
%TO.P,U3,5,PROG_5*%
%TO.N,Net-(U3-PROG)*%
X162500000Y-101000000D03*
%TD*%
D23*
%TO.P,C18,1*%
%TO.N,/32K_N*%
X136950000Y-85010000D03*
%TO.P,C18,2*%
%TO.N,GND*%
X135990000Y-85010000D03*
%TD*%
D17*
%TO.P,TP7,1,1_1*%
%TO.N,SDA*%
X141137500Y-90000000D03*
%TD*%
%TO.P,TP1,1,1_1*%
%TO.N,Net-(U4-U0TXD{slash}PROG{slash}GPIO43)*%
X154740000Y-85290000D03*
%TD*%
D12*
%TO.P,R17,1*%
%TO.N,GND*%
X150637500Y-94990000D03*
%TO.P,R17,2*%
%TO.N,RESE*%
X150637500Y-96010000D03*
%TD*%
D56*
%TO.P,U1,1,VSS_1*%
%TO.N,GND*%
X135400000Y-79530000D03*
%TO.P,U1,2,~{SR1}_2*%
%TO.N,BTN2*%
X135000000Y-79530000D03*
%TO.P,U1,3,~{RST}_3*%
%TO.N,EN*%
X134600000Y-79530000D03*
%TO.P,U1,4,NC_4*%
%TO.N,unconnected-(U1-NC-Pad4)*%
X134600000Y-81130000D03*
%TO.P,U1,5,~{SR0}_5*%
%TO.N,BTN3*%
X135000000Y-81130000D03*
%TO.P,U1,6,VCC_6*%
%TO.N,+3V3*%
X135400000Y-81130000D03*
%TD*%
D44*
%TO.P,Q1,1,G_1*%
%TO.N,VBUS*%
X158000000Y-99000000D03*
%TO.P,Q1,2,S_2*%
%TO.N,Net-(D1-K)*%
X156100000Y-99000000D03*
%TO.P,Q1,3,D_3*%
%TO.N,+BATT*%
X157050000Y-100875000D03*
%TD*%
D57*
%TO.N,GND*%
X159500000Y-103000000D03*
X161000000Y-91000000D03*
X129500000Y-81000000D03*
X146150000Y-76500000D03*
X143000000Y-94000000D03*
X149200000Y-76300000D03*
X145500000Y-84500000D03*
X154350000Y-81000000D03*
X137250000Y-79000000D03*
X151500000Y-76500000D03*
X134000000Y-109000000D03*
X142870000Y-94700000D03*
X141700000Y-94630000D03*
X143500000Y-84500000D03*
X129500000Y-78400000D03*
X154830000Y-90000000D03*
X154500000Y-109500000D03*
X151050000Y-78700000D03*
X158500000Y-81000000D03*
X146500000Y-83500000D03*
X143500000Y-86500000D03*
X157000000Y-87050000D03*
X137110000Y-95500000D03*
X145000000Y-76500000D03*
X144500000Y-85500000D03*
X138500000Y-81000000D03*
X161500000Y-105000000D03*
X149200000Y-77950000D03*
X133000000Y-84500000D03*
X163000000Y-86500000D03*
X149200000Y-77100000D03*
X145500000Y-86500000D03*
X140640000Y-94690000D03*
X152500000Y-94000000D03*
X139480000Y-95490000D03*
X146500000Y-85500000D03*
X158000000Y-96000000D03*
X143150000Y-101500000D03*
X129500000Y-105000000D03*
X159701000Y-77401150D03*
X151000000Y-91000000D03*
X147250000Y-76500000D03*
X161500000Y-100000000D03*
X148500000Y-89520000D03*
X147500000Y-86500000D03*
X144500000Y-83500000D03*
X138300000Y-95460000D03*
X129500000Y-99000000D03*
X143980000Y-94690000D03*
X148000000Y-100500000D03*
X155000000Y-88000000D03*
X135000000Y-84000000D03*
X147500000Y-84500000D03*
%TO.N,+3V3*%
X143900000Y-100500000D03*
X139453090Y-81953090D03*
X150490000Y-86170000D03*
X162500000Y-109500000D03*
X127000000Y-81799998D03*
X148940000Y-93990000D03*
X146500000Y-79000000D03*
X152000000Y-106500000D03*
X149000000Y-81500000D03*
X140500000Y-76500000D03*
X131500000Y-79000000D03*
X140500000Y-84000000D03*
X145000000Y-90500000D03*
X130000000Y-109000000D03*
X154500000Y-96000000D03*
X136500000Y-82500000D03*
X140000000Y-80000000D03*
%TO.N,RES*%
X146500000Y-100500000D03*
X147820000Y-94330000D03*
%TO.N,SCL*%
X141000000Y-80739062D03*
X139000000Y-93000000D03*
X136000000Y-78500000D03*
%TO.N,BTN1*%
X142551000Y-79475000D03*
X159500000Y-106225000D03*
%TO.N,BTN4*%
X130250000Y-106250000D03*
X141500000Y-80000000D03*
%TO.N,BTN3*%
X135000000Y-82000000D03*
X136500000Y-90000000D03*
X130000000Y-79625000D03*
X133500000Y-77000000D03*
X145000000Y-80000000D03*
%TO.N,ADC*%
X159750000Y-85500000D03*
X142500000Y-81000000D03*
%TO.N,STAT*%
X141475000Y-81500000D03*
X154500000Y-103500000D03*
%TO.N,Net-(U3-STAT)*%
X155500000Y-101500000D03*
X163500000Y-99000000D03*
%TO.N,+BATT*%
X160500000Y-83500000D03*
X158000000Y-101000000D03*
X160500000Y-97500000D03*
%TO.N,BTN2*%
X159176000Y-76550000D03*
X150500000Y-87000000D03*
X135000000Y-78500000D03*
X144250000Y-80250000D03*
%TO.N,Net-(U4-U0RXD{slash}PROG{slash}GPIO44)*%
X153500000Y-83500000D03*
X151115000Y-85385000D03*
%TO.N,USB_DET*%
X141000000Y-88000000D03*
X150500000Y-93000000D03*
%TO.N,USB_D+*%
X141010000Y-86850000D03*
X154500000Y-91500000D03*
%TO.N,USB_D-*%
X154260000Y-90760000D03*
X141120000Y-86020000D03*
%TO.N,SDA*%
X139786546Y-81045684D03*
X139000000Y-90000000D03*
X136500000Y-79500000D03*
%TO.N,Net-(U4-U0TXD{slash}PROG{slash}GPIO43)*%
X154000000Y-84500000D03*
X150180000Y-85430000D03*
%TD*%
%TO.N,PREVGH*%
D58*
X141137500Y-102862500D02*
X141137500Y-99000000D01*
X132865000Y-97865000D02*
X134000000Y-99000000D01*
X139500000Y-104500000D02*
X141137500Y-102862500D01*
X134000000Y-102000000D02*
X136500000Y-104500000D01*
D59*
X141137500Y-99000000D02*
X141137500Y-97417500D01*
D58*
X136500000Y-104500000D02*
X139500000Y-104500000D01*
D59*
X141137500Y-97417500D02*
X140730000Y-97010000D01*
D58*
X132000000Y-97865000D02*
X132865000Y-97865000D01*
X134000000Y-99000000D02*
X134000000Y-102000000D01*
%TO.N,GND*%
X161187500Y-77775000D02*
X161187500Y-78687500D01*
D59*
X150762500Y-88300000D02*
X150310000Y-88300000D01*
D60*
X137090000Y-96595000D02*
X137090000Y-95545000D01*
D59*
X127937500Y-76725000D02*
X127312500Y-76100000D01*
D60*
X143980000Y-94690000D02*
X144000000Y-94710000D01*
D59*
X134020000Y-109990000D02*
X133670000Y-110340000D01*
X128637500Y-105000000D02*
X128637500Y-104137500D01*
X144097500Y-90902500D02*
X144097500Y-90500000D01*
X151637500Y-94990000D02*
X152607500Y-94990000D01*
X133670000Y-110340000D02*
X127340000Y-110340000D01*
X154000000Y-109000000D02*
X154500000Y-109500000D01*
D60*
X148000000Y-100500000D02*
X147637500Y-100137500D01*
D59*
X163470000Y-99990000D02*
X161510000Y-99990000D01*
X134020000Y-109020000D02*
X134020000Y-109990000D01*
X161510000Y-99990000D02*
X161500000Y-100000000D01*
X137625000Y-79375000D02*
X137625000Y-80250000D01*
D60*
X142880000Y-94710000D02*
X142880000Y-95970000D01*
X142870000Y-94700000D02*
X142880000Y-94710000D01*
D58*
X134000000Y-109000000D02*
X133000000Y-109000000D01*
D59*
X148500000Y-89520000D02*
X149137500Y-89520000D01*
X161560000Y-98290000D02*
X161540000Y-98310000D01*
X136282123Y-78974000D02*
X135731123Y-79525000D01*
X158500000Y-103510000D02*
X158990000Y-103510000D01*
X128070000Y-77832500D02*
X128070000Y-76760000D01*
X149637500Y-95020000D02*
X150607500Y-95020000D01*
X159311150Y-77401150D02*
X159020000Y-77110000D01*
X156657500Y-88000000D02*
X156657500Y-87392500D01*
X127312500Y-76100000D02*
X126480000Y-76100000D01*
X162390000Y-107530000D02*
X162850000Y-107530000D01*
X162850000Y-107530000D02*
X163040000Y-107340000D01*
X158160000Y-75080000D02*
X158820000Y-74420000D01*
D60*
X143137500Y-99000000D02*
X143137500Y-101487500D01*
D59*
X135731123Y-79525000D02*
X135500000Y-79525000D01*
X129500000Y-81000000D02*
X129490000Y-81010000D01*
X163040000Y-107340000D02*
X163720000Y-107340000D01*
D61*
X146020000Y-77500000D02*
X145000000Y-77500000D01*
D59*
X136000000Y-85000000D02*
X135000000Y-84000000D01*
X160240000Y-88500000D02*
X159400000Y-89340000D01*
D58*
X160074850Y-77775000D02*
X159701000Y-77401150D01*
D59*
X127937500Y-103325000D02*
X127432500Y-102820000D01*
X129500000Y-81000000D02*
X129200000Y-80700000D01*
X161500000Y-105000000D02*
X161500000Y-106000000D01*
X144137500Y-90460000D02*
X144097500Y-90500000D01*
X128637500Y-104137500D02*
X128000000Y-103500000D01*
D58*
X161187500Y-77775000D02*
X160074850Y-77775000D01*
D60*
X144000000Y-94710000D02*
X144000000Y-95890000D01*
D59*
X153397500Y-89700000D02*
X154137500Y-88960000D01*
X162200000Y-80120000D02*
X162410000Y-80330000D01*
D61*
X145000000Y-77500000D02*
X145000000Y-76500000D01*
D59*
X161500000Y-106000000D02*
X162062500Y-106562500D01*
D61*
X159437500Y-89662500D02*
X159450000Y-89650000D01*
D59*
X129200000Y-80700000D02*
X125920000Y-80700000D01*
X152512500Y-89700000D02*
X153397500Y-89700000D01*
X154137500Y-88862500D02*
X155000000Y-88000000D01*
X158720000Y-77110000D02*
X158160000Y-76550000D01*
D61*
X143060000Y-77560000D02*
X143000000Y-77500000D01*
X150657500Y-81040000D02*
X154310000Y-81040000D01*
D59*
X157500000Y-103510000D02*
X158500000Y-103510000D01*
X127432500Y-102820000D02*
X126100000Y-102820000D01*
X162137500Y-95500000D02*
X162137500Y-96592500D01*
D60*
X140640000Y-94690000D02*
X140630000Y-94700000D01*
D59*
X127340000Y-110340000D02*
X126160000Y-109160000D01*
X126100000Y-102820000D02*
X126090000Y-102830000D01*
X151637500Y-91137500D02*
X151637500Y-91990000D01*
X161500000Y-98775000D02*
X161550000Y-98725000D01*
D61*
X158750000Y-81250000D02*
X158500000Y-81000000D01*
D59*
X152607500Y-94990000D02*
X152637500Y-95020000D01*
X137224000Y-78974000D02*
X137250000Y-79000000D01*
X133125000Y-84375000D02*
X133000000Y-84500000D01*
D58*
X129500000Y-97865000D02*
X129500000Y-99000000D01*
D61*
X159437500Y-90700000D02*
X160700000Y-90700000D01*
D59*
X139150000Y-80750000D02*
X139150000Y-81250000D01*
X162190000Y-107330000D02*
X162390000Y-107530000D01*
X142500000Y-92500000D02*
X144097500Y-90902500D01*
D61*
X160700000Y-90700000D02*
X161000000Y-91000000D01*
D59*
X153000000Y-109000000D02*
X154000000Y-109000000D01*
X163137500Y-85500000D02*
X163137500Y-86362500D01*
D61*
X158000000Y-96000000D02*
X159400000Y-94600000D01*
D59*
X143137500Y-101487500D02*
X143150000Y-101500000D01*
D61*
X160350000Y-81250000D02*
X158750000Y-81250000D01*
D58*
X161187500Y-78687500D02*
X162000000Y-79500000D01*
D59*
X136282123Y-78974000D02*
X137224000Y-78974000D01*
X144137500Y-89500000D02*
X144137500Y-90460000D01*
D61*
X151050000Y-78700000D02*
X150200000Y-78700000D01*
D59*
X134000000Y-109000000D02*
X134020000Y-109020000D01*
X159020000Y-77110000D02*
X158720000Y-77110000D01*
X163700000Y-102500000D02*
X163700000Y-100220000D01*
X162820000Y-80330000D02*
X162990000Y-80160000D01*
X154137500Y-88960000D02*
X154137500Y-88862500D01*
X134025000Y-84375000D02*
X133125000Y-84375000D01*
D61*
X158000000Y-96000000D02*
X156775000Y-96000000D01*
D60*
X147637500Y-100137500D02*
X147637500Y-99000000D01*
D59*
X158990000Y-103510000D02*
X159500000Y-103000000D01*
X162137500Y-96592500D02*
X161560000Y-97170000D01*
X159701000Y-77401150D02*
X159311150Y-77401150D01*
X162190000Y-106685000D02*
X162190000Y-107330000D01*
X142500000Y-93500000D02*
X143000000Y-94000000D01*
X136157500Y-84000000D02*
X135000000Y-84000000D01*
X142500000Y-92500000D02*
X142500000Y-93500000D01*
D61*
X144000000Y-77520000D02*
X144980000Y-77520000D01*
D59*
X151637500Y-94990000D02*
X150637500Y-94990000D01*
D60*
X140630000Y-94700000D02*
X140630000Y-95900000D01*
D59*
X163137500Y-84500000D02*
X163137500Y-85500000D01*
X139150000Y-80750000D02*
X138750000Y-80750000D01*
X162137500Y-88500000D02*
X160240000Y-88500000D01*
D61*
X143637500Y-77560000D02*
X143060000Y-77560000D01*
D59*
X129500000Y-105000000D02*
X128637500Y-105000000D01*
D61*
X159400000Y-94600000D02*
X159400000Y-94580000D01*
D59*
X162062500Y-106562500D02*
X162062500Y-106675000D01*
D61*
X151500000Y-76500000D02*
X150450000Y-76500000D01*
D59*
X138750000Y-80750000D02*
X138500000Y-81000000D01*
X136157500Y-85000000D02*
X136000000Y-85000000D01*
X129500000Y-78400000D02*
X128637500Y-78400000D01*
X152880000Y-94380000D02*
X152500000Y-94000000D01*
X163770000Y-74420000D02*
X163990000Y-74640000D01*
X156657500Y-87392500D02*
X157000000Y-87050000D01*
X151000000Y-91000000D02*
X151500000Y-91000000D01*
X150657500Y-81040000D02*
X150637500Y-81020000D01*
X162200000Y-79480000D02*
X162200000Y-80120000D01*
X150310000Y-88300000D02*
X149160000Y-89450000D01*
D60*
X139480000Y-96430000D02*
X139480000Y-95490000D01*
D59*
X150607500Y-95020000D02*
X150637500Y-94990000D01*
X128637500Y-78400000D02*
X128070000Y-77832500D01*
D61*
X161500000Y-100000000D02*
X161500000Y-98775000D01*
D59*
X163137500Y-86362500D02*
X163000000Y-86500000D01*
X163700000Y-100220000D02*
X163470000Y-99990000D01*
D60*
X138300000Y-96510000D02*
X138300000Y-95460000D01*
D59*
X155575000Y-90000000D02*
X154830000Y-90000000D01*
X162990000Y-80160000D02*
X163860000Y-80160000D01*
X158160000Y-76550000D02*
X158160000Y-75080000D01*
X162410000Y-80330000D02*
X162820000Y-80330000D01*
X126160000Y-109160000D02*
X126160000Y-107510000D01*
X151500000Y-91000000D02*
X151637500Y-91137500D01*
X158820000Y-74420000D02*
X163770000Y-74420000D01*
D61*
X144980000Y-77520000D02*
X145000000Y-77500000D01*
D59*
X152880000Y-95010000D02*
X152880000Y-94380000D01*
D61*
X159437500Y-90700000D02*
X159437500Y-89662500D01*
D59*
X163990000Y-74640000D02*
X163990000Y-75320000D01*
D61*
X154310000Y-81040000D02*
X154350000Y-81000000D01*
D59*
X161560000Y-97170000D02*
X161560000Y-98290000D01*
X137250000Y-79000000D02*
X137625000Y-79375000D01*
D60*
X141700000Y-95860000D02*
X141700000Y-94630000D01*
%TO.N,+3V3*%
D59*
X130000000Y-109000000D02*
X128647500Y-109000000D01*
D62*
X147500000Y-81362500D02*
X147500000Y-80500000D01*
D61*
X154500000Y-96950000D02*
X154500000Y-96000000D01*
X144000000Y-78500000D02*
X145000000Y-78500000D01*
D59*
X142262500Y-84200000D02*
X140700000Y-84200000D01*
D58*
X145000000Y-92250000D02*
X145010000Y-92260000D01*
X131500000Y-79000000D02*
X131500000Y-78000000D01*
D59*
X139150000Y-80250000D02*
X139750000Y-80250000D01*
X142000000Y-77490000D02*
X141490000Y-77490000D01*
X150490000Y-86170000D02*
X151080000Y-86170000D01*
D61*
X146098970Y-78598970D02*
X145098970Y-78598970D01*
D58*
X131362500Y-109000000D02*
X130000000Y-109000000D01*
D59*
X139366940Y-81866940D02*
X139266940Y-81866940D01*
D61*
X131450000Y-109000000D02*
X131450000Y-107550000D01*
D62*
X147500000Y-80500000D02*
X146500000Y-79500000D01*
D58*
X144000000Y-97862500D02*
X144000000Y-96980000D01*
D61*
X150637500Y-81980000D02*
X153300000Y-81980000D01*
D59*
X137625000Y-81250000D02*
X136897500Y-81250000D01*
X140700000Y-84200000D02*
X140500000Y-84000000D01*
D58*
X131500000Y-78000000D02*
X131800000Y-77700000D01*
D59*
X136500000Y-82500000D02*
X135410000Y-81410000D01*
X141490000Y-77490000D02*
X140500000Y-76500000D01*
X139266940Y-81866940D02*
X139150000Y-81750000D01*
X149137500Y-81637500D02*
X149000000Y-81500000D01*
X153500000Y-107000000D02*
X152500000Y-107000000D01*
D61*
X153790000Y-96880000D02*
X154370000Y-96880000D01*
X149000000Y-81500000D02*
X149480000Y-81980000D01*
X146500000Y-79000000D02*
X146098970Y-78598970D01*
X149480000Y-81980000D02*
X150000000Y-81980000D01*
D58*
X132547500Y-79010000D02*
X133500000Y-79010000D01*
X133500000Y-79010000D02*
X133500000Y-80020000D01*
X127000000Y-81799998D02*
X127000000Y-82362500D01*
D59*
X150460000Y-86200000D02*
X149137500Y-86200000D01*
D62*
X147900000Y-81362500D02*
X147900000Y-80400000D01*
D58*
X145000000Y-90500000D02*
X145000000Y-92250000D01*
D59*
X148637500Y-94137500D02*
X148637500Y-94990000D01*
X152500000Y-107000000D02*
X152000000Y-106500000D01*
X150010000Y-81990000D02*
X150000000Y-81980000D01*
D62*
X147900000Y-80400000D02*
X146500000Y-79000000D01*
D59*
X149910000Y-82600000D02*
X150010000Y-82500000D01*
X139750000Y-80250000D02*
X140000000Y-80000000D01*
D61*
X150000000Y-81980000D02*
X150637500Y-81980000D01*
D59*
X162647500Y-109352500D02*
X162500000Y-109500000D01*
D58*
X131800000Y-77700000D02*
X131800000Y-78262500D01*
X127000000Y-82362500D02*
X127637500Y-83000000D01*
D59*
X151760000Y-85490000D02*
X152000000Y-85490000D01*
D61*
X152880000Y-95970000D02*
X153790000Y-96880000D01*
D59*
X150010000Y-82500000D02*
X150010000Y-81990000D01*
X151080000Y-86170000D02*
X151760000Y-85490000D01*
X149137500Y-82600000D02*
X149910000Y-82600000D01*
X148785000Y-93990000D02*
X148637500Y-94137500D01*
X136637500Y-82362500D02*
X136500000Y-82500000D01*
X139453090Y-81953090D02*
X139366940Y-81866940D01*
D58*
X143900000Y-100500000D02*
X143900000Y-97962500D01*
D62*
X146500000Y-79500000D02*
X146500000Y-79000000D01*
D58*
X143900000Y-97962500D02*
X144000000Y-97862500D01*
D59*
X139150000Y-80250000D02*
X139150000Y-79002500D01*
X136637500Y-81510000D02*
X136637500Y-82362500D01*
D61*
X145000000Y-78500000D02*
X145098970Y-78598970D01*
D59*
X139150000Y-79002500D02*
X139147500Y-79000000D01*
D58*
X131800000Y-78262500D02*
X132547500Y-79010000D01*
X131500000Y-79000000D02*
X131500000Y-78962500D01*
D59*
X131450000Y-107550000D02*
X131500000Y-107500000D01*
X148940000Y-93990000D02*
X148785000Y-93990000D01*
X136897500Y-81250000D02*
X136637500Y-81510000D01*
X162647500Y-108500000D02*
X162647500Y-109352500D01*
%TO.N,RES*%
X147550000Y-94922500D02*
X148637500Y-96010000D01*
X146637500Y-99000000D02*
X146630000Y-98992500D01*
X146630000Y-94010000D02*
X147500000Y-93140000D01*
X146630000Y-98992500D02*
X146630000Y-94010000D01*
X146500000Y-100500000D02*
X146637500Y-100362500D01*
X147550000Y-94600000D02*
X147550000Y-94922500D01*
X147820000Y-94330000D02*
X147550000Y-94600000D01*
X147500000Y-93140000D02*
X147500000Y-88237500D01*
X146637500Y-100362500D02*
X146637500Y-99000000D01*
%TO.N,EN*%
X142990000Y-78510000D02*
X142000000Y-78510000D01*
X143020000Y-78520000D02*
X143000000Y-78500000D01*
X143020000Y-79020000D02*
X143020000Y-78520000D01*
X134782123Y-77974000D02*
X134420000Y-78336123D01*
X136243877Y-78000000D02*
X136217877Y-77974000D01*
X143200000Y-79200000D02*
X143020000Y-79020000D01*
X147100000Y-81362500D02*
X147100000Y-80570000D01*
X142000000Y-78500000D02*
X141500000Y-78000000D01*
X147100000Y-80570000D02*
X145730000Y-79200000D01*
X141500000Y-78000000D02*
X136243877Y-78000000D01*
X136217877Y-77974000D02*
X134782123Y-77974000D01*
X134420000Y-78336123D02*
X134420000Y-79050000D01*
X145730000Y-79200000D02*
X143200000Y-79200000D01*
X134420000Y-79050000D02*
X134580000Y-79210000D01*
X143000000Y-78500000D02*
X142990000Y-78510000D01*
%TO.N,SCL*%
X136026000Y-78474000D02*
X137601500Y-78474000D01*
X142262500Y-82600000D02*
X141540000Y-82600000D01*
X141540000Y-82600000D02*
X140820000Y-81880000D01*
X137601500Y-78474000D02*
X138127500Y-79000000D01*
X136000000Y-78500000D02*
X136026000Y-78474000D01*
X140500000Y-93000000D02*
X139000000Y-93000000D01*
X140820000Y-80919062D02*
X141000000Y-80739062D01*
X140820000Y-81880000D02*
X140820000Y-80919062D01*
X138137500Y-79010000D02*
X138127500Y-79000000D01*
X138137500Y-80237500D02*
X138137500Y-79010000D01*
%TO.N,Net-(J3-Pin_18)*%
X142637500Y-97842500D02*
X142637500Y-99000000D01*
X142637500Y-97842500D02*
X142840000Y-97640000D01*
X142840000Y-97640000D02*
X142840000Y-96930000D01*
%TO.N,/32K_P*%
D62*
X137117500Y-84000000D02*
X138137500Y-84000000D01*
X139737500Y-84600000D02*
X142262500Y-84600000D01*
X138137500Y-84000000D02*
X138637500Y-83500000D01*
X138637500Y-83500000D02*
X139737500Y-84600000D01*
%TO.N,/32K_N*%
X139270000Y-86040000D02*
X139290000Y-86060000D01*
X139290000Y-86060000D02*
X140350000Y-85000000D01*
X137670000Y-85000000D02*
X138710000Y-86040000D01*
X140350000Y-85000000D02*
X142150000Y-85000000D01*
X138710000Y-86040000D02*
X139270000Y-86040000D01*
X137117500Y-85000000D02*
X137670000Y-85000000D01*
%TO.N,BTN1*%
D59*
X143500000Y-80243877D02*
X143900000Y-80643877D01*
X159500000Y-104500000D02*
X160750000Y-103250000D01*
D58*
X161187500Y-106225000D02*
X161187500Y-106187500D01*
D59*
X143900000Y-80643877D02*
X143900000Y-81362500D01*
D58*
X160500000Y-105500000D02*
X160500000Y-105000000D01*
D59*
X143000000Y-79500000D02*
X143500000Y-80000000D01*
D58*
X161187500Y-108060000D02*
X161187500Y-106225000D01*
D59*
X159500000Y-106225000D02*
X159500000Y-104500000D01*
D58*
X161187500Y-106187500D02*
X160500000Y-105500000D01*
X160500000Y-105000000D02*
X162000000Y-103500000D01*
D59*
X142551000Y-79475000D02*
X142576000Y-79500000D01*
D58*
X161627500Y-108500000D02*
X161187500Y-108060000D01*
D59*
X143500000Y-80000000D02*
X143500000Y-80243877D01*
X142576000Y-79500000D02*
X143000000Y-79500000D01*
X160750000Y-103250000D02*
X161850000Y-103250000D01*
%TO.N,BTN4*%
X141500000Y-80000000D02*
X142810000Y-80000000D01*
X127627500Y-109000000D02*
X130250000Y-106377500D01*
X130250000Y-106250000D02*
X128250000Y-106250000D01*
X142810000Y-80000000D02*
X143500000Y-80690000D01*
X143500000Y-80690000D02*
X143500000Y-81362500D01*
X130250000Y-106377500D02*
X130250000Y-106250000D01*
X128250000Y-106250000D02*
X128000000Y-106500000D01*
%TO.N,/40M_P*%
D62*
X153510000Y-84872500D02*
X151637500Y-83000000D01*
X154137500Y-88000000D02*
X152812500Y-88000000D01*
X152512500Y-88300000D02*
X153510000Y-87302500D01*
X152812500Y-88000000D02*
X152512500Y-88300000D01*
X153510000Y-87302500D02*
X153510000Y-84872500D01*
%TO.N,/40M_N*%
X151651372Y-87541372D02*
X151912744Y-87280000D01*
X152970000Y-86870000D02*
X152970000Y-85150000D01*
X150762500Y-89700000D02*
X149917500Y-89700000D01*
X151651372Y-88988128D02*
X151651372Y-87541372D01*
X150762500Y-89700000D02*
X150939500Y-89700000D01*
X151912744Y-87280000D02*
X152560000Y-87280000D01*
X149917500Y-89700000D02*
X149137500Y-90480000D01*
X150030000Y-83400000D02*
X149137500Y-83400000D01*
X152160000Y-84340000D02*
X150970000Y-84340000D01*
X152560000Y-87280000D02*
X152970000Y-86870000D01*
X152970000Y-85150000D02*
X152160000Y-84340000D01*
X150970000Y-84340000D02*
X150030000Y-83400000D01*
X150939500Y-89700000D02*
X151651372Y-88988128D01*
%TO.N,Net-(D1-K)*%
D61*
X156775000Y-96950000D02*
X156760000Y-96965000D01*
X154002500Y-93000000D02*
X155000000Y-93000000D01*
X155000000Y-93000000D02*
X155610000Y-93610000D01*
X155610000Y-96630000D02*
X155900000Y-96920000D01*
X155610000Y-95020000D02*
X155610000Y-96630000D01*
X155900000Y-96920000D02*
X156570000Y-96920000D01*
D59*
X156112501Y-96950000D02*
X156775000Y-96950000D01*
D61*
X156100000Y-98420000D02*
X156100000Y-99000000D01*
X156760000Y-97760000D02*
X156100000Y-98420000D01*
X156760000Y-96965000D02*
X156760000Y-97760000D01*
X155610000Y-95020000D02*
X156750000Y-95020000D01*
X155610000Y-93610000D02*
X155610000Y-95020000D01*
%TO.N,VBUS*%
D59*
X158990000Y-101000000D02*
X160600000Y-101000000D01*
X156500000Y-102500000D02*
X157490000Y-102500000D01*
X156560000Y-90000000D02*
X157120000Y-90000000D01*
X152637500Y-91990000D02*
X152673500Y-92026000D01*
X156500000Y-89117500D02*
X157617500Y-88000000D01*
X156500000Y-93000000D02*
X157272500Y-93000000D01*
D61*
X158000000Y-99000000D02*
X158000000Y-98000000D01*
X159000000Y-99000000D02*
X158000000Y-99000000D01*
X160600000Y-100600000D02*
X159000000Y-99000000D01*
D63*
X159437500Y-93300000D02*
X160300000Y-93300000D01*
D59*
X160600000Y-101000000D02*
X160600000Y-100600000D01*
D61*
X158000000Y-98000000D02*
X161000000Y-95000000D01*
D59*
X156500000Y-90500000D02*
X156500000Y-90060000D01*
X156500000Y-90060000D02*
X156500000Y-89117500D01*
X157490000Y-102500000D02*
X157500000Y-102490000D01*
D63*
X159437500Y-93300000D02*
X157572500Y-93300000D01*
D59*
X156500000Y-92000000D02*
X156500000Y-93000000D01*
X156474000Y-92026000D02*
X156500000Y-92000000D01*
D61*
X161000000Y-95000000D02*
X161000000Y-94000000D01*
D59*
X157500000Y-102490000D02*
X158990000Y-101000000D01*
X157425000Y-90000000D02*
X157000000Y-90000000D01*
D61*
X161000000Y-94000000D02*
X160300000Y-93300000D01*
D59*
X156500000Y-90500000D02*
X156500000Y-92000000D01*
X152673500Y-92026000D02*
X156474000Y-92026000D01*
%TO.N,PREVGL*%
D58*
X139432900Y-104000000D02*
X140137500Y-103295400D01*
X134500000Y-101750000D02*
X136750000Y-104000000D01*
X127137500Y-97865000D02*
X128002500Y-97000000D01*
X140137500Y-103295400D02*
X140137500Y-99000000D01*
D59*
X139989500Y-98100000D02*
X138880000Y-98100000D01*
X138880000Y-98100000D02*
X138370000Y-97590000D01*
D58*
X128002500Y-97000000D02*
X133000000Y-97000000D01*
D59*
X140137500Y-99000000D02*
X140137500Y-98248000D01*
D58*
X136750000Y-104000000D02*
X139432900Y-104000000D01*
D59*
X138370000Y-97590000D02*
X138340000Y-97590000D01*
D58*
X133000000Y-97000000D02*
X134500000Y-98500000D01*
D59*
X140137500Y-98248000D02*
X139989500Y-98100000D01*
D58*
X134500000Y-98500000D02*
X134500000Y-101750000D01*
%TO.N,BTN3*%
D59*
X133137500Y-77990000D02*
X133137500Y-77362500D01*
X146700000Y-80600000D02*
X146700000Y-81362500D01*
X130000000Y-79625000D02*
X128637500Y-79625000D01*
X146100000Y-80000000D02*
X146700000Y-80600000D01*
X135000000Y-82000000D02*
X135000000Y-81410000D01*
X137720000Y-88780000D02*
X137720000Y-88650000D01*
X136500000Y-90000000D02*
X137720000Y-88780000D01*
X128637500Y-79625000D02*
X128187500Y-80075000D01*
X128187500Y-80075000D02*
X127937500Y-80075000D01*
X133137500Y-77362500D02*
X133500000Y-77000000D01*
X145000000Y-80000000D02*
X146100000Y-80000000D01*
%TO.N,Net-(U4-XTAL_P)*%
X150617500Y-83000000D02*
X149137500Y-83000000D01*
%TO.N,Net-(AE1-FEED)*%
D64*
X148050000Y-77500000D02*
X148200000Y-77650000D01*
X146980000Y-77500000D02*
X148050000Y-77500000D01*
X148250000Y-77665000D02*
X148250000Y-76500000D01*
%TO.N,ADC*%
D59*
X162127500Y-83500000D02*
X162127500Y-85372500D01*
X143100000Y-81362500D02*
X142862500Y-81362500D01*
X162127500Y-85372500D02*
X162000000Y-85500000D01*
X142862500Y-81362500D02*
X142500000Y-81000000D01*
X162000000Y-85500000D02*
X159750000Y-85500000D01*
%TO.N,STAT*%
X155500000Y-103510000D02*
X156490000Y-103510000D01*
X155500000Y-103510000D02*
X154510000Y-103510000D01*
X154510000Y-103510000D02*
X154500000Y-103500000D01*
X142000000Y-81500000D02*
X141475000Y-81500000D01*
X142262500Y-81762500D02*
X142000000Y-81500000D01*
X156490000Y-103510000D02*
X156500000Y-103520000D01*
X142262500Y-82200000D02*
X142262500Y-81762500D01*
%TO.N,Net-(U3-STAT)*%
X163500000Y-99000000D02*
X162775000Y-99000000D01*
X155500000Y-102490000D02*
X155500000Y-101500000D01*
X162775000Y-99000000D02*
X162500000Y-98725000D01*
%TO.N,Net-(D3-K)*%
D61*
X127137500Y-101135000D02*
X129500000Y-101135000D01*
X131087500Y-102722500D02*
X129500000Y-101135000D01*
%TO.N,Net-(Q2-B)*%
D59*
X133750000Y-86000000D02*
X132125000Y-84375000D01*
X136127500Y-86000000D02*
X133750000Y-86000000D01*
%TO.N,Net-(D2-A)*%
D58*
X133500000Y-80980000D02*
X133500000Y-82075000D01*
X133075000Y-82500000D02*
X132575000Y-83000000D01*
X133500000Y-82075000D02*
X133075000Y-82500000D01*
X132000000Y-83000000D02*
X132000000Y-82500000D01*
X132000000Y-83000000D02*
X129637500Y-83000000D01*
X132000000Y-82500000D02*
X131800000Y-82300000D01*
X132575000Y-83000000D02*
X132000000Y-83000000D01*
X131800000Y-82300000D02*
X131800000Y-80500000D01*
%TO.N,Net-(J3-Pin_22)*%
D59*
X140000000Y-97480000D02*
X140637500Y-98117500D01*
X140637500Y-98117500D02*
X140637500Y-99000000D01*
X140000000Y-97480000D02*
X139560000Y-97480000D01*
%TO.N,GDR*%
D62*
X150637500Y-103637500D02*
X150637500Y-97010000D01*
X150637500Y-97010000D02*
X151637500Y-96010000D01*
X157500000Y-106062500D02*
X157500000Y-105000000D01*
X151500000Y-104500000D02*
X150637500Y-103637500D01*
X157500000Y-105000000D02*
X157000000Y-104500000D01*
X157000000Y-104500000D02*
X151500000Y-104500000D01*
%TO.N,RESE*%
X155600000Y-106062500D02*
X155037500Y-105500000D01*
X155037500Y-105500000D02*
X151500000Y-105500000D01*
D59*
X150137500Y-96510000D02*
X150137500Y-99000000D01*
D62*
X151500000Y-105500000D02*
X150137500Y-104137500D01*
D59*
X150637500Y-96010000D02*
X150137500Y-96510000D01*
D62*
X150137500Y-104137500D02*
X150137500Y-99000000D01*
%TO.N,Net-(J3-Pin_5)*%
D59*
X149137500Y-96480000D02*
X149137500Y-99000000D01*
X149637500Y-95980000D02*
X149137500Y-96480000D01*
%TO.N,BUSY*%
X147130000Y-98992500D02*
X147130000Y-94120000D01*
X147130000Y-94120000D02*
X147900000Y-93350000D01*
X147137500Y-99000000D02*
X147130000Y-98992500D01*
X147900000Y-93350000D02*
X147900000Y-88237500D01*
%TO.N,DC*%
X146137500Y-93962500D02*
X147100000Y-93000000D01*
X147100000Y-93000000D02*
X147100000Y-88237500D01*
X146137500Y-99000000D02*
X146137500Y-93962500D01*
%TO.N,CS*%
X145637500Y-99000000D02*
X145637500Y-93962500D01*
X145637500Y-93962500D02*
X146700000Y-92900000D01*
X146700000Y-92900000D02*
X146700000Y-88237500D01*
%TO.N,SCK*%
X145137500Y-99000000D02*
X145137500Y-93982500D01*
X145137500Y-93982500D02*
X146300000Y-92820000D01*
X146300000Y-92820000D02*
X146300000Y-88237500D01*
%TO.N,MOSI*%
X144637500Y-94022500D02*
X145900000Y-92760000D01*
X144637500Y-99000000D02*
X144637500Y-94022500D01*
X145900000Y-92760000D02*
X145900000Y-88237500D01*
%TO.N,Net-(J3-Pin_20)*%
X141637500Y-97092500D02*
X141770000Y-96960000D01*
X141637500Y-99000000D02*
X141637500Y-97092500D01*
%TO.N,Net-(J3-Pin_24)*%
D58*
X139000000Y-98500000D02*
X139500000Y-99000000D01*
X138000000Y-98500000D02*
X139000000Y-98500000D01*
X138000000Y-98500000D02*
X137110000Y-97610000D01*
X137110000Y-97610000D02*
X137110000Y-97530000D01*
%TO.N,+BATT*%
D61*
X160500000Y-97500000D02*
X160500000Y-98625000D01*
X157050000Y-100875000D02*
X157875000Y-100875000D01*
D59*
X162147500Y-82500000D02*
X160350000Y-82500000D01*
D61*
X160500000Y-83500000D02*
X160500000Y-82650000D01*
D59*
X160500000Y-98625000D02*
X160600000Y-98725000D01*
X163147500Y-83500000D02*
X162147500Y-82500000D01*
X157875000Y-100875000D02*
X158000000Y-101000000D01*
%TO.N,BTN2*%
X144300000Y-80300000D02*
X144300000Y-81362500D01*
X144250000Y-80250000D02*
X144300000Y-80300000D01*
X152000000Y-86510000D02*
X151484000Y-87026000D01*
X161000000Y-76550000D02*
X161450000Y-76550000D01*
X151484000Y-87026000D02*
X150526000Y-87026000D01*
X161450000Y-76550000D02*
X162000000Y-76000000D01*
X159176000Y-76550000D02*
X161000000Y-76550000D01*
X150526000Y-87026000D02*
X150500000Y-87000000D01*
X135000000Y-78500000D02*
X135000000Y-79210000D01*
%TO.N,DN*%
D62*
X157900000Y-91880000D02*
X157900000Y-91630000D01*
X158350000Y-92590000D02*
X158130000Y-92370000D01*
X157900000Y-91630000D02*
X157190000Y-90920000D01*
X159060000Y-92590000D02*
X158350000Y-92590000D01*
X157190000Y-90920000D02*
X157190000Y-90590000D01*
X158130000Y-92370000D02*
X158130000Y-92110000D01*
X158130000Y-92110000D02*
X157900000Y-91880000D01*
X159070000Y-92600000D02*
X159060000Y-92590000D01*
%TO.N,DP*%
X159270000Y-92000000D02*
X159280000Y-92010000D01*
X158520000Y-92000000D02*
X159270000Y-92000000D01*
X158060000Y-91130000D02*
X158300000Y-91370000D01*
X158300000Y-91780000D02*
X158520000Y-92000000D01*
X158060000Y-89640000D02*
X158060000Y-91130000D01*
X157350000Y-89462500D02*
X157882500Y-89462500D01*
X157882500Y-89462500D02*
X158060000Y-89640000D01*
X158300000Y-91370000D02*
X158300000Y-91780000D01*
%TO.N,VDD*%
D59*
X143100000Y-90462500D02*
X143137500Y-90500000D01*
X143100000Y-88237500D02*
X143100000Y-90462500D01*
%TO.N,Net-(D5-A)*%
D58*
X137000000Y-110500000D02*
X155500000Y-110500000D01*
X135500000Y-109000000D02*
X137000000Y-110500000D01*
X155500000Y-110500000D02*
X156550000Y-109450000D01*
D61*
X132000000Y-102362500D02*
X132637500Y-103000000D01*
X132000000Y-101135000D02*
X132000000Y-102362500D01*
D58*
X133000000Y-104600000D02*
X134600000Y-104600000D01*
D61*
X132637500Y-103000000D02*
X132637500Y-104237500D01*
D58*
X156550000Y-109450000D02*
X156550000Y-107937500D01*
X135500000Y-105500000D02*
X135500000Y-109000000D01*
X134600000Y-104600000D02*
X135500000Y-105500000D01*
%TO.N,Net-(U4-LNA_IN{slash}RF)*%
D59*
X148300000Y-80200000D02*
X148300000Y-78800000D01*
D64*
X149170000Y-78750000D02*
X148350000Y-78750000D01*
D59*
X148300000Y-81362500D02*
X148300000Y-80200000D01*
%TO.N,Net-(U3-PROG)*%
X161026000Y-102474000D02*
X162500000Y-101000000D01*
X158516000Y-102474000D02*
X161026000Y-102474000D01*
X158500000Y-102490000D02*
X158516000Y-102474000D01*
%TO.N,Net-(U4-U0RXD{slash}PROG{slash}GPIO44)*%
X151115000Y-85385000D02*
X150885000Y-85385000D01*
X154000000Y-83000000D02*
X153500000Y-83500000D01*
X150100000Y-84600000D02*
X149137500Y-84600000D01*
X155137500Y-83000000D02*
X154000000Y-83000000D01*
X150885000Y-85385000D02*
X150100000Y-84600000D01*
%TO.N,USB_DET*%
X152637500Y-93010000D02*
X151637500Y-93010000D01*
X142262500Y-87000000D02*
X141630000Y-87000000D01*
X141000000Y-87630000D02*
X141000000Y-88000000D01*
X150500000Y-93000000D02*
X151627500Y-93000000D01*
X151627500Y-93000000D02*
X151637500Y-93010000D01*
X141630000Y-87000000D02*
X141000000Y-87630000D01*
%TO.N,USB_D+*%
D62*
X153990000Y-91500000D02*
X154500000Y-91500000D01*
X153650000Y-91160000D02*
X153990000Y-91500000D01*
X153650000Y-90380000D02*
X153650000Y-91160000D01*
X141010000Y-86850000D02*
X141010000Y-86800000D01*
X154840000Y-89190000D02*
X153650000Y-90380000D01*
X141210000Y-86600000D02*
X142262500Y-86600000D01*
X155500000Y-89190000D02*
X154840000Y-89190000D01*
X155810000Y-89500000D02*
X155500000Y-89190000D01*
X141010000Y-86800000D02*
X141210000Y-86600000D01*
%TO.N,USB_D-*%
X141520000Y-86020000D02*
X141700000Y-86200000D01*
X155430000Y-90760000D02*
X155620000Y-90570000D01*
X141120000Y-86020000D02*
X141520000Y-86020000D01*
X154260000Y-90760000D02*
X155430000Y-90760000D01*
X141700000Y-86200000D02*
X142262500Y-86200000D01*
%TO.N,SDA*%
D59*
X136500000Y-79500000D02*
X136500000Y-80352500D01*
X136637500Y-80490000D02*
X136897500Y-80750000D01*
X140725000Y-82225000D02*
X141500000Y-83000000D01*
X139998612Y-81778612D02*
X140445000Y-82225000D01*
X140445000Y-82225000D02*
X140725000Y-82225000D01*
X136897500Y-80750000D02*
X137625000Y-80750000D01*
X141137500Y-90000000D02*
X139000000Y-90000000D01*
X139786546Y-81045684D02*
X139998612Y-81257750D01*
X139998612Y-81257750D02*
X139998612Y-81778612D01*
X136500000Y-80352500D02*
X136637500Y-80490000D01*
X141500000Y-83000000D02*
X142262500Y-83000000D01*
%TO.N,ACC_INT_2*%
X142262500Y-83400000D02*
X141474322Y-83400000D01*
X140600322Y-82526000D02*
X139063500Y-82526000D01*
X139063500Y-82526000D02*
X138637500Y-82100000D01*
X141474322Y-83400000D02*
X140600322Y-82526000D01*
X138637500Y-82100000D02*
X138637500Y-81762500D01*
%TO.N,ACC_INT_1*%
X140475644Y-82827000D02*
X141448644Y-83800000D01*
X138137500Y-82100000D02*
X138864500Y-82827000D01*
X141448644Y-83800000D02*
X142262500Y-83800000D01*
X138137500Y-81762500D02*
X138137500Y-82100000D01*
X138864500Y-82827000D02*
X140475644Y-82827000D01*
%TO.N,VIB_PWM*%
X137147500Y-86957500D02*
X137730000Y-87540000D01*
X140800000Y-85410000D02*
X142240000Y-85410000D01*
X140420000Y-85790000D02*
X140800000Y-85410000D01*
X137730000Y-87540000D02*
X140080000Y-87540000D01*
X140420000Y-87200000D02*
X140420000Y-85790000D01*
X142240000Y-85410000D02*
X142260000Y-85430000D01*
X140080000Y-87540000D02*
X140420000Y-87200000D01*
X137147500Y-86000000D02*
X137147500Y-86957500D01*
%TO.N,Net-(U4-U0TXD{slash}PROG{slash}GPIO43)*%
X154637500Y-85137500D02*
X154000000Y-84500000D01*
X149800000Y-85000000D02*
X149137500Y-85000000D01*
X150038397Y-85238397D02*
X149800000Y-85000000D01*
X150180000Y-85430000D02*
X150038397Y-85288397D01*
X150038397Y-85288397D02*
X150038397Y-85238397D01*
%TD*%
M02*
