%TF.GenerationSoftware,KiCad,Pcbnew,10.0.2*%
%TF.CreationDate,2026-05-20T18:33:07+05:30*%
%TF.ProjectId,SmartWatch,536d6172-7457-4617-9463-682e6b696361,rev?*%
%TF.SameCoordinates,Original*%
%TF.FileFunction,Legend,Top*%
%TF.FilePolarity,Positive*%
%FSLAX46Y46*%
G04 Gerber Fmt 4.6, Leading zero omitted, Abs format (unit mm)*
G04 Created by KiCad (PCBNEW 10.0.2) date 2026-05-20 18:33:07*
%MOMM*%
%LPD*%
G01*
G04 APERTURE LIST*
%ADD10C,0.100000*%
%ADD11C,0.200000*%
%ADD12C,0.150000*%
%ADD13C,0.120000*%
%ADD14C,0.127000*%
G04 APERTURE END LIST*
D10*
X124460000Y-77580000D02*
X125630000Y-77580000D01*
X125630000Y-79390000D01*
X124460000Y-79390000D01*
X124460000Y-77580000D01*
X124480000Y-104150000D02*
X125650000Y-104150000D01*
X125650000Y-105960000D01*
X124480000Y-105960000D01*
X124480000Y-104150000D01*
X125630000Y-76100000D02*
X127920000Y-76100000D01*
X127920000Y-80860000D01*
X125630000Y-80860000D01*
X125630000Y-76100000D01*
X125650000Y-102630000D02*
X127940000Y-102630000D01*
X127940000Y-107390000D01*
X125650000Y-107390000D01*
X125650000Y-102630000D01*
X162080000Y-102570000D02*
X164370000Y-102570000D01*
X164370000Y-107330000D01*
X162080000Y-107330000D01*
X162080000Y-102570000D01*
X162090000Y-75360000D02*
X164380000Y-75360000D01*
X164380000Y-80120000D01*
X162090000Y-80120000D01*
X162090000Y-75360000D01*
X164370000Y-104080000D02*
X165540000Y-104080000D01*
X165540000Y-105890000D01*
X164370000Y-105890000D01*
X164370000Y-104080000D01*
X164380000Y-76830000D02*
X165550000Y-76830000D01*
X165550000Y-78640000D01*
X164380000Y-78640000D01*
X164380000Y-76830000D01*
D11*
X142986339Y-107062457D02*
X142891101Y-107014838D01*
X142891101Y-107014838D02*
X142795863Y-106919600D01*
X142795863Y-106919600D02*
X142653006Y-106776742D01*
X142653006Y-106776742D02*
X142557768Y-106729123D01*
X142557768Y-106729123D02*
X142462530Y-106729123D01*
X142510149Y-106967219D02*
X142414911Y-106919600D01*
X142414911Y-106919600D02*
X142319673Y-106824361D01*
X142319673Y-106824361D02*
X142272054Y-106633885D01*
X142272054Y-106633885D02*
X142272054Y-106300552D01*
X142272054Y-106300552D02*
X142319673Y-106110076D01*
X142319673Y-106110076D02*
X142414911Y-106014838D01*
X142414911Y-106014838D02*
X142510149Y-105967219D01*
X142510149Y-105967219D02*
X142700625Y-105967219D01*
X142700625Y-105967219D02*
X142795863Y-106014838D01*
X142795863Y-106014838D02*
X142891101Y-106110076D01*
X142891101Y-106110076D02*
X142938720Y-106300552D01*
X142938720Y-106300552D02*
X142938720Y-106633885D01*
X142938720Y-106633885D02*
X142891101Y-106824361D01*
X142891101Y-106824361D02*
X142795863Y-106919600D01*
X142795863Y-106919600D02*
X142700625Y-106967219D01*
X142700625Y-106967219D02*
X142510149Y-106967219D01*
X143795863Y-106300552D02*
X143795863Y-106967219D01*
X143367292Y-106300552D02*
X143367292Y-106824361D01*
X143367292Y-106824361D02*
X143414911Y-106919600D01*
X143414911Y-106919600D02*
X143510149Y-106967219D01*
X143510149Y-106967219D02*
X143653006Y-106967219D01*
X143653006Y-106967219D02*
X143748244Y-106919600D01*
X143748244Y-106919600D02*
X143795863Y-106871980D01*
X144272054Y-106967219D02*
X144272054Y-106300552D01*
X144272054Y-105967219D02*
X144224435Y-106014838D01*
X144224435Y-106014838D02*
X144272054Y-106062457D01*
X144272054Y-106062457D02*
X144319673Y-106014838D01*
X144319673Y-106014838D02*
X144272054Y-105967219D01*
X144272054Y-105967219D02*
X144272054Y-106062457D01*
X144748244Y-106300552D02*
X144748244Y-106967219D01*
X144748244Y-106395790D02*
X144795863Y-106348171D01*
X144795863Y-106348171D02*
X144891101Y-106300552D01*
X144891101Y-106300552D02*
X145033958Y-106300552D01*
X145033958Y-106300552D02*
X145129196Y-106348171D01*
X145129196Y-106348171D02*
X145176815Y-106443409D01*
X145176815Y-106443409D02*
X145176815Y-106967219D01*
X145510149Y-106300552D02*
X145891101Y-106300552D01*
X145653006Y-105967219D02*
X145653006Y-106824361D01*
X145653006Y-106824361D02*
X145700625Y-106919600D01*
X145700625Y-106919600D02*
X145795863Y-106967219D01*
X145795863Y-106967219D02*
X145891101Y-106967219D01*
X146605387Y-106919600D02*
X146510149Y-106967219D01*
X146510149Y-106967219D02*
X146319673Y-106967219D01*
X146319673Y-106967219D02*
X146224435Y-106919600D01*
X146224435Y-106919600D02*
X146176816Y-106824361D01*
X146176816Y-106824361D02*
X146176816Y-106443409D01*
X146176816Y-106443409D02*
X146224435Y-106348171D01*
X146224435Y-106348171D02*
X146319673Y-106300552D01*
X146319673Y-106300552D02*
X146510149Y-106300552D01*
X146510149Y-106300552D02*
X146605387Y-106348171D01*
X146605387Y-106348171D02*
X146653006Y-106443409D01*
X146653006Y-106443409D02*
X146653006Y-106538647D01*
X146653006Y-106538647D02*
X146176816Y-106633885D01*
X146938721Y-106300552D02*
X147319673Y-106300552D01*
X147081578Y-105967219D02*
X147081578Y-106824361D01*
X147081578Y-106824361D02*
X147129197Y-106919600D01*
X147129197Y-106919600D02*
X147224435Y-106967219D01*
X147224435Y-106967219D02*
X147319673Y-106967219D01*
D12*
X140739914Y-85296761D02*
X141044676Y-85296761D01*
X140404676Y-85510094D02*
X140739914Y-85296761D01*
X140739914Y-85296761D02*
X140404676Y-85083427D01*
X141044676Y-84534856D02*
X141044676Y-84900571D01*
X141044676Y-84717714D02*
X140404676Y-84717714D01*
X140404676Y-84717714D02*
X140496104Y-84778666D01*
X140496104Y-84778666D02*
X140557057Y-84839618D01*
X140557057Y-84839618D02*
X140587533Y-84900571D01*
%TO.C,C22*%
D13*
X140220000Y-96557836D02*
X140220000Y-96342164D01*
X140940000Y-96557836D02*
X140940000Y-96342164D01*
%TO.C,R19*%
X148257500Y-95346359D02*
X148257500Y-95653641D01*
X149017500Y-95346359D02*
X149017500Y-95653641D01*
%TO.C,R1*%
X141620000Y-78153641D02*
X141620000Y-77846359D01*
X142380000Y-78153641D02*
X142380000Y-77846359D01*
%TO.C,R20*%
X138483859Y-78620000D02*
X138791141Y-78620000D01*
X138483859Y-79380000D02*
X138791141Y-79380000D01*
%TO.C,C24*%
X142520000Y-96547836D02*
X142520000Y-96332164D01*
X143240000Y-96547836D02*
X143240000Y-96332164D01*
%TO.C,Y1*%
D14*
X138150000Y-84630000D02*
X138150000Y-85390000D01*
X139650000Y-84630000D02*
X139650000Y-85390000D01*
%TO.C,C6*%
D13*
X150277500Y-81607836D02*
X150277500Y-81392164D01*
X150997500Y-81607836D02*
X150997500Y-81392164D01*
%TO.C,C1*%
X152950000Y-81597836D02*
X152950000Y-81382164D01*
X153670000Y-81597836D02*
X153670000Y-81382164D01*
%TO.C,R4*%
X161983859Y-108120000D02*
X162291141Y-108120000D01*
X161983859Y-108880000D02*
X162291141Y-108880000D01*
%TO.C,R11*%
X127983859Y-108620000D02*
X128291141Y-108620000D01*
X127983859Y-109380000D02*
X128291141Y-109380000D01*
%TO.C,Y2*%
X153287500Y-87600000D02*
X149987500Y-87600000D01*
X153287500Y-90400000D02*
X153287500Y-87600000D01*
%TO.C,TP4*%
X154200000Y-107000000D02*
G75*
G02*
X152800000Y-107000000I-700000J0D01*
G01*
X152800000Y-107000000D02*
G75*
G02*
X154200000Y-107000000I700000J0D01*
G01*
%TO.C,D1*%
D14*
X154837500Y-92200000D02*
X156437500Y-92200000D01*
X156437500Y-93800000D02*
X154837500Y-93800000D01*
D11*
X153047500Y-93000000D02*
G75*
G02*
X152847500Y-93000000I-100000J0D01*
G01*
X152847500Y-93000000D02*
G75*
G02*
X153047500Y-93000000I100000J0D01*
G01*
%TO.C,C29*%
D13*
X137910000Y-96852164D02*
X137910000Y-97067836D01*
X138630000Y-96852164D02*
X138630000Y-97067836D01*
%TO.C,R12*%
X150973859Y-82620000D02*
X151281141Y-82620000D01*
X150973859Y-83380000D02*
X151281141Y-83380000D01*
%TO.C,R2*%
X157120000Y-102846359D02*
X157120000Y-103153641D01*
X157880000Y-102846359D02*
X157880000Y-103153641D01*
%TO.C,C7*%
X146607836Y-77140000D02*
X146392164Y-77140000D01*
X146607836Y-77860000D02*
X146392164Y-77860000D01*
%TO.C,C11*%
X162549664Y-85140000D02*
X162765336Y-85140000D01*
X162549664Y-85860000D02*
X162765336Y-85860000D01*
%TO.C,R6*%
X155120000Y-103153641D02*
X155120000Y-102846359D01*
X155880000Y-103153641D02*
X155880000Y-102846359D01*
%TO.C,D3*%
D14*
X126337500Y-100300000D02*
X126337500Y-98700000D01*
X127937500Y-98700000D02*
X127937500Y-100300000D01*
D11*
X127237500Y-102190000D02*
G75*
G02*
X127037500Y-102190000I-100000J0D01*
G01*
X127037500Y-102190000D02*
G75*
G02*
X127237500Y-102190000I100000J0D01*
G01*
%TO.C,TP4*%
D13*
X145650000Y-92300000D02*
G75*
G02*
X144250000Y-92300000I-700000J0D01*
G01*
X144250000Y-92300000D02*
G75*
G02*
X145650000Y-92300000I700000J0D01*
G01*
%TO.C,R9*%
X162473859Y-84120000D02*
X162781141Y-84120000D01*
X162473859Y-84880000D02*
X162781141Y-84880000D01*
%TO.C,Q2*%
X131515000Y-83437500D02*
X131515000Y-82787500D01*
X131515000Y-83437500D02*
X131515000Y-84087500D01*
X134635000Y-83437500D02*
X134635000Y-82787500D01*
X134635000Y-83437500D02*
X134635000Y-84087500D01*
X131565000Y-84600000D02*
X131235000Y-84840000D01*
X131235000Y-84360000D01*
X131565000Y-84600000D01*
G36*
X131565000Y-84600000D02*
G01*
X131235000Y-84840000D01*
X131235000Y-84360000D01*
X131565000Y-84600000D01*
G37*
%TO.C,C26*%
X139070000Y-97057836D02*
X139070000Y-96842164D01*
X139790000Y-97057836D02*
X139790000Y-96842164D01*
%TO.C,R16*%
X151257500Y-95653641D02*
X151257500Y-95346359D01*
X152017500Y-95653641D02*
X152017500Y-95346359D01*
%TO.C,C5*%
X144640000Y-78107836D02*
X144640000Y-77892164D01*
X145360000Y-78107836D02*
X145360000Y-77892164D01*
%TO.C,U2*%
X155637500Y-94440000D02*
X154837500Y-94440000D01*
X155637500Y-94440000D02*
X156437500Y-94440000D01*
X155637500Y-97560000D02*
X154837500Y-97560000D01*
X155637500Y-97560000D02*
X156437500Y-97560000D01*
X156937500Y-97510000D02*
X157177500Y-97840000D01*
X156697500Y-97840000D01*
X156937500Y-97510000D01*
G36*
X157177500Y-97840000D02*
G01*
X156697500Y-97840000D01*
X156937500Y-97510000D01*
X157177500Y-97840000D01*
G37*
%TO.C,C14*%
X133140000Y-80392164D02*
X133140000Y-80607836D01*
X133860000Y-80392164D02*
X133860000Y-80607836D01*
%TO.C,J2*%
X158407500Y-87650000D02*
X164817500Y-87650000D01*
X158407500Y-96350000D02*
X158407500Y-87650000D01*
X163587500Y-87650000D02*
X163587500Y-96350000D01*
X164817500Y-96350000D02*
X158407500Y-96350000D01*
X164817500Y-96350000D02*
X164817500Y-87650000D01*
%TO.C,TP3*%
X138400000Y-88650000D02*
G75*
G02*
X137000000Y-88650000I-700000J0D01*
G01*
X137000000Y-88650000D02*
G75*
G02*
X138400000Y-88650000I700000J0D01*
G01*
%TO.C,C12*%
X157245336Y-87640000D02*
X157029664Y-87640000D01*
X157245336Y-88360000D02*
X157029664Y-88360000D01*
%TO.C,C15*%
X143509664Y-90140000D02*
X143725336Y-90140000D01*
X143509664Y-90860000D02*
X143725336Y-90860000D01*
%TO.C,C4*%
X151277500Y-81607836D02*
X151277500Y-81392164D01*
X151997500Y-81607836D02*
X151997500Y-81392164D01*
%TO.C,C21*%
X131721920Y-102490000D02*
X132003080Y-102490000D01*
X131721920Y-103510000D02*
X132003080Y-103510000D01*
%TO.C,C9*%
X149542164Y-78390000D02*
X149757836Y-78390000D01*
X149542164Y-79110000D02*
X149757836Y-79110000D01*
%TO.C,R3*%
X158120000Y-103153641D02*
X158120000Y-102846359D01*
X158880000Y-103153641D02*
X158880000Y-102846359D01*
%TO.C,D5*%
D14*
X131200000Y-100300000D02*
X131200000Y-98700000D01*
X132800000Y-98700000D02*
X132800000Y-100300000D01*
D11*
X132100000Y-96810000D02*
G75*
G02*
X131900000Y-96810000I-100000J0D01*
G01*
X131900000Y-96810000D02*
G75*
G02*
X132100000Y-96810000I100000J0D01*
G01*
%TO.C,TP2*%
D13*
X155837500Y-83000000D02*
G75*
G02*
X154437500Y-83000000I-700000J0D01*
G01*
X154437500Y-83000000D02*
G75*
G02*
X155837500Y-83000000I700000J0D01*
G01*
%TO.C,R14*%
X152257500Y-92346359D02*
X152257500Y-92653641D01*
X153017500Y-92346359D02*
X153017500Y-92653641D01*
%TO.C,C2*%
X142640000Y-78107836D02*
X142640000Y-77892164D01*
X143360000Y-78107836D02*
X143360000Y-77892164D01*
%TO.C,U5*%
D14*
X157150000Y-89145000D02*
X155850000Y-89145000D01*
X157150000Y-90855000D02*
X155850000Y-90855000D01*
D11*
X154800000Y-89500000D02*
G75*
G02*
X154600000Y-89500000I-100000J0D01*
G01*
X154600000Y-89500000D02*
G75*
G02*
X154800000Y-89500000I100000J0D01*
G01*
%TO.C,C19*%
D13*
X148777500Y-90107836D02*
X148777500Y-89892164D01*
X149497500Y-90107836D02*
X149497500Y-89892164D01*
%TO.C,R18*%
X136257500Y-80846359D02*
X136257500Y-81153641D01*
X137017500Y-80846359D02*
X137017500Y-81153641D01*
%TO.C,TP5*%
X153700000Y-109000000D02*
G75*
G02*
X152300000Y-109000000I-700000J0D01*
G01*
X152300000Y-109000000D02*
G75*
G02*
X153700000Y-109000000I700000J0D01*
G01*
%TO.C,C3*%
X143640000Y-78107836D02*
X143640000Y-77892164D01*
X144360000Y-78107836D02*
X144360000Y-77892164D01*
%TO.C,TP6*%
X141200000Y-93000000D02*
G75*
G02*
X139800000Y-93000000I-700000J0D01*
G01*
X139800000Y-93000000D02*
G75*
G02*
X141200000Y-93000000I700000J0D01*
G01*
%TO.C,U4*%
X142090000Y-81190000D02*
X142740000Y-81190000D01*
X142090000Y-81840000D02*
X142090000Y-81190000D01*
X142090000Y-87760000D02*
X142090000Y-88410000D01*
X142090000Y-88410000D02*
X142740000Y-88410000D01*
X148660000Y-81190000D02*
X149070000Y-81190000D01*
X149310000Y-81840000D02*
X149310000Y-81490000D01*
X149310000Y-87760000D02*
X149310000Y-88410000D01*
X149310000Y-88410000D02*
X148660000Y-88410000D01*
X149310000Y-81190000D02*
X149640000Y-80950000D01*
X149640000Y-81430000D01*
X149310000Y-81190000D01*
G36*
X149640000Y-81430000D02*
G01*
X149310000Y-81190000D01*
X149640000Y-80950000D01*
X149640000Y-81430000D01*
G37*
%TO.C,C16*%
X153777500Y-88372164D02*
X153777500Y-88587836D01*
X154497500Y-88372164D02*
X154497500Y-88587836D01*
%TO.C,Q3*%
X154990000Y-107000000D02*
X154990000Y-106350000D01*
X154990000Y-107000000D02*
X154990000Y-107650000D01*
X158110000Y-107000000D02*
X158110000Y-106350000D01*
X158110000Y-107000000D02*
X158110000Y-107650000D01*
X158060000Y-105837500D02*
X158390000Y-105597500D01*
X158390000Y-106077500D01*
X158060000Y-105837500D01*
G36*
X158390000Y-106077500D02*
G01*
X158060000Y-105837500D01*
X158390000Y-105597500D01*
X158390000Y-106077500D01*
G37*
%TO.C,C25*%
X141360000Y-96547836D02*
X141360000Y-96332164D01*
X142080000Y-96547836D02*
X142080000Y-96332164D01*
%TO.C,R15*%
X151257500Y-92653641D02*
X151257500Y-92346359D01*
X152017500Y-92653641D02*
X152017500Y-92346359D01*
%TO.C,D4*%
D14*
X128700000Y-100300000D02*
X128700000Y-98700000D01*
X130300000Y-98700000D02*
X130300000Y-100300000D01*
D11*
X129600000Y-96810000D02*
G75*
G02*
X129400000Y-96810000I-100000J0D01*
G01*
X129400000Y-96810000D02*
G75*
G02*
X129600000Y-96810000I100000J0D01*
G01*
%TO.C,D2*%
D13*
X130800000Y-76890000D02*
X130800000Y-80750000D01*
X132800000Y-76890000D02*
X130800000Y-76890000D01*
X132800000Y-76890000D02*
X132800000Y-80750000D01*
%TO.C,R10*%
X133120000Y-78346359D02*
X133120000Y-78653641D01*
X133880000Y-78346359D02*
X133880000Y-78653641D01*
%TO.C,L2*%
X130900000Y-104000000D02*
X130900000Y-108000000D01*
X135100000Y-104000000D02*
X135100000Y-108000000D01*
%TO.C,C17*%
X136577836Y-83630000D02*
X136362164Y-83630000D01*
X136577836Y-84350000D02*
X136362164Y-84350000D01*
%TO.C,C23*%
X149277500Y-95607836D02*
X149277500Y-95392164D01*
X149997500Y-95607836D02*
X149997500Y-95392164D01*
%TO.C,R5*%
X156120000Y-102856359D02*
X156120000Y-103163641D01*
X156880000Y-102856359D02*
X156880000Y-103163641D01*
%TO.C,M1*%
X126577500Y-84060000D02*
X126577500Y-83000000D01*
X127637500Y-84060000D02*
X126577500Y-84060000D01*
X128637500Y-81940000D02*
X130697500Y-81940000D01*
X128637500Y-84060000D02*
X128637500Y-81940000D01*
X128637500Y-84060000D02*
X130697500Y-84060000D01*
X130697500Y-84060000D02*
X130697500Y-81940000D01*
%TO.C,U6*%
X137287500Y-79900000D02*
X137287500Y-79900000D01*
X137287500Y-80400000D02*
X137287500Y-80100000D01*
X137287500Y-81600000D02*
X137287500Y-81600000D01*
X137287500Y-82100000D02*
X137287500Y-81600000D01*
X137787500Y-79900000D02*
X137487500Y-79900000D01*
X137787500Y-82100000D02*
X137287500Y-82100000D01*
X138987500Y-79900000D02*
X139487500Y-79900000D01*
X138987500Y-82100000D02*
X138987500Y-82100000D01*
X139487500Y-79900000D02*
X139487500Y-80400000D01*
X139487500Y-80400000D02*
X139487500Y-80400000D01*
X139487500Y-81600000D02*
X139487500Y-82100000D01*
X139487500Y-82100000D02*
X138987500Y-82100000D01*
X137287500Y-79900000D02*
X136927500Y-79900000D01*
X137287500Y-79540000D01*
X137287500Y-79900000D01*
G36*
X137287500Y-79900000D02*
G01*
X136927500Y-79900000D01*
X137287500Y-79540000D01*
X137287500Y-79900000D01*
G37*
%TO.C,C28*%
X143630000Y-96537836D02*
X143630000Y-96322164D01*
X144350000Y-96537836D02*
X144350000Y-96322164D01*
%TO.C,C10*%
X152520000Y-95597836D02*
X152520000Y-95382164D01*
X153240000Y-95597836D02*
X153240000Y-95382164D01*
%TO.C,C20*%
X132084420Y-108490000D02*
X132365580Y-108490000D01*
X132084420Y-109510000D02*
X132365580Y-109510000D01*
%TO.C,R13*%
X136316359Y-85650000D02*
X136623641Y-85650000D01*
X136316359Y-86410000D02*
X136623641Y-86410000D01*
%TO.C,C13*%
X143549664Y-89140000D02*
X143765336Y-89140000D01*
X143549664Y-89860000D02*
X143765336Y-89860000D01*
%TO.C,C27*%
X136740000Y-97077836D02*
X136740000Y-96862164D01*
X137460000Y-97077836D02*
X137460000Y-96862164D01*
%TO.C,R7*%
X151620000Y-86153641D02*
X151620000Y-85846359D01*
X152380000Y-86153641D02*
X152380000Y-85846359D01*
%TO.C,R8*%
X162791141Y-83120000D02*
X162483859Y-83120000D01*
X162791141Y-83880000D02*
X162483859Y-83880000D01*
%TO.C,TP5*%
X143200000Y-92500000D02*
G75*
G02*
X141800000Y-92500000I-700000J0D01*
G01*
X141800000Y-92500000D02*
G75*
G02*
X143200000Y-92500000I700000J0D01*
G01*
%TO.C,U3*%
X159990000Y-99862500D02*
X159990000Y-99062500D01*
X159990000Y-99862500D02*
X159990000Y-100662500D01*
X163110000Y-99862500D02*
X163110000Y-99062500D01*
X163110000Y-99862500D02*
X163110000Y-100662500D01*
X163060000Y-98562500D02*
X163390000Y-98322500D01*
X163390000Y-98802500D01*
X163060000Y-98562500D01*
G36*
X163390000Y-98802500D02*
G01*
X163060000Y-98562500D01*
X163390000Y-98322500D01*
X163390000Y-98802500D01*
G37*
%TO.C,C18*%
X136577836Y-84650000D02*
X136362164Y-84650000D01*
X136577836Y-85370000D02*
X136362164Y-85370000D01*
%TO.C,TP7*%
X141837500Y-90000000D02*
G75*
G02*
X140437500Y-90000000I-700000J0D01*
G01*
X140437500Y-90000000D02*
G75*
G02*
X141837500Y-90000000I700000J0D01*
G01*
%TO.C,TP1*%
X155440000Y-85290000D02*
G75*
G02*
X154040000Y-85290000I-700000J0D01*
G01*
X154040000Y-85290000D02*
G75*
G02*
X155440000Y-85290000I700000J0D01*
G01*
%TO.C,R17*%
X150257500Y-95346359D02*
X150257500Y-95653641D01*
X151017500Y-95346359D02*
X151017500Y-95653641D01*
%TO.C,U1*%
D10*
X134650000Y-80580000D02*
G75*
G02*
X134550000Y-80580000I-50000J0D01*
G01*
X134550000Y-80580000D02*
G75*
G02*
X134650000Y-80580000I50000J0D01*
G01*
%TO.C,Q1*%
D13*
X155490000Y-99937500D02*
X155490000Y-99287500D01*
X155490000Y-99937500D02*
X155490000Y-100587500D01*
X158610000Y-99937500D02*
X158610000Y-99287500D01*
X158610000Y-99937500D02*
X158610000Y-100587500D01*
X158560000Y-98775000D02*
X158890000Y-98535000D01*
X158890000Y-99015000D01*
X158560000Y-98775000D01*
G36*
X158890000Y-99015000D02*
G01*
X158560000Y-98775000D01*
X158890000Y-98535000D01*
X158890000Y-99015000D01*
G37*
%TD*%
M02*
