%TF.GenerationSoftware,KiCad,Pcbnew,10.0.2*%
%TF.CreationDate,2026-05-20T18:33:07+05:30*%
%TF.ProjectId,SmartWatch,536d6172-7457-4617-9463-682e6b696361,rev?*%
%TF.SameCoordinates,Original*%
%TF.FileFunction,Profile,NP*%
%FSLAX46Y46*%
G04 Gerber Fmt 4.6, Leading zero omitted, Abs format (unit mm)*
G04 Created by KiCad (PCBNEW 10.0.2) date 2026-05-20 18:33:07*
%MOMM*%
%LPD*%
G01*
G04 APERTURE LIST*
%TA.AperFunction,Profile*%
%ADD10C,0.050000*%
%TD*%
%TA.AperFunction,Profile*%
%ADD11C,0.150000*%
%TD*%
G04 APERTURE END LIST*
D10*
X125500000Y-68000000D02*
G75*
G02*
X127500000Y-66000000I2000000J0D01*
G01*
X125500000Y-114000000D02*
X125500000Y-68000000D01*
X127500000Y-66000000D02*
X162500000Y-66000000D01*
X127500000Y-116000000D02*
G75*
G02*
X125500000Y-114000000I0J2000000D01*
G01*
D11*
X130292893Y-68792893D02*
G75*
G02*
X131292893Y-67792893I1000007J-7D01*
G01*
X131292893Y-67792893D02*
X157292893Y-67792893D01*
X131292893Y-69792893D02*
G75*
G02*
X130292907Y-68792893I7J999993D01*
G01*
X131550000Y-113000000D02*
G75*
G02*
X132550000Y-112000000I1000000J0D01*
G01*
X132550000Y-112000000D02*
X136500000Y-112000000D01*
X132550000Y-114000000D02*
G75*
G02*
X131550000Y-113000000I0J1000000D01*
G01*
X137000000Y-111500000D02*
G75*
G02*
X136500000Y-112000000I-500000J0D01*
G01*
X137000000Y-111500000D02*
X155000000Y-111500000D01*
X155500000Y-112000000D02*
G75*
G02*
X155000000Y-111500000I0J500000D01*
G01*
X157292893Y-67792893D02*
G75*
G02*
X158292907Y-68792893I7J-1000007D01*
G01*
X157292893Y-69792893D02*
X131292893Y-69792893D01*
X158292893Y-68792893D02*
G75*
G02*
X157292893Y-69792893I-999993J-7D01*
G01*
X158550000Y-112000000D02*
X155500000Y-112000000D01*
X158550000Y-112000000D02*
G75*
G02*
X159550000Y-113000000I0J-1000000D01*
G01*
X158550000Y-114000000D02*
X132550000Y-114000000D01*
X159550000Y-113000000D02*
G75*
G02*
X158550000Y-114000000I-1000000J0D01*
G01*
D10*
X162500000Y-66000000D02*
G75*
G02*
X164500000Y-68000000I0J-2000000D01*
G01*
X162500000Y-116000000D02*
X127500000Y-116000000D01*
X164500000Y-68000000D02*
X164500000Y-114000000D01*
X164500000Y-114000000D02*
G75*
G02*
X162500000Y-116000000I-2000000J0D01*
G01*
M02*
