%TF.GenerationSoftware,KiCad,Pcbnew,10.0.2*%
%TF.CreationDate,2026-05-20T18:33:07+05:30*%
%TF.ProjectId,SmartWatch,536d6172-7457-4617-9463-682e6b696361,rev?*%
%TF.SameCoordinates,Original*%
%TF.FileFunction,Soldermask,Top*%
%TF.FilePolarity,Negative*%
%FSLAX46Y46*%
G04 Gerber Fmt 4.6, Leading zero omitted, Abs format (unit mm)*
G04 Created by KiCad (PCBNEW 10.0.2) date 2026-05-20 18:33:07*
%MOMM*%
%LPD*%
G01*
G04 APERTURE LIST*
G04 Aperture macros list*
%AMRoundRect*
0 Rectangle with rounded corners*
0 $1 Rounding radius*
0 $2 $3 $4 $5 $6 $7 $8 $9 X,Y pos of 4 corners*
0 Add a 4 corners polygon primitive as box body*
4,1,4,$2,$3,$4,$5,$6,$7,$8,$9,$2,$3,0*
0 Add four circle primitives for the rounded corners*
1,1,$1+$1,$2,$3*
1,1,$1+$1,$4,$5*
1,1,$1+$1,$6,$7*
1,1,$1+$1,$8,$9*
0 Add four rect primitives between the rounded corners*
20,1,$1+$1,$2,$3,$4,$5,0*
20,1,$1+$1,$4,$5,$6,$7,0*
20,1,$1+$1,$6,$7,$8,$9,0*
20,1,$1+$1,$8,$9,$2,$3,0*%
%AMFreePoly0*
4,1,22,0.783779,0.730902,0.820106,0.680902,0.825000,0.650000,0.825000,0.000000,0.805902,-0.058779,0.755902,-0.095106,0.725000,-0.100000,0.425000,-0.100000,0.425000,-0.650000,0.405902,-0.708779,0.355902,-0.745106,0.325000,-0.750000,-0.325000,-0.750000,-0.383779,-0.730902,-0.420106,-0.680902,-0.425000,-0.650000,-0.425000,0.650000,-0.405902,0.708779,-0.355902,0.745106,-0.325000,0.750000,
0.725000,0.750000,0.783779,0.730902,0.783779,0.730902,$1*%
%AMFreePoly1*
4,1,22,0.383779,0.730902,0.420106,0.680902,0.425000,0.650000,0.425000,-0.650000,0.405902,-0.708779,0.355902,-0.745106,0.325000,-0.750000,-0.325000,-0.750000,-0.383779,-0.730902,-0.420106,-0.680902,-0.425000,-0.650000,-0.425000,-0.100000,-0.725000,-0.100000,-0.783779,-0.080902,-0.820106,-0.030902,-0.825000,0.000000,-0.825000,0.650000,-0.805902,0.708779,-0.755902,0.745106,-0.725000,0.750000,
0.325000,0.750000,0.383779,0.730902,0.383779,0.730902,$1*%
G04 Aperture macros list end*
%ADD10C,0.100000*%
%ADD11RoundRect,0.215000X0.245000X-0.215000X0.245000X0.215000X-0.245000X0.215000X-0.245000X-0.215000X0*%
%ADD12RoundRect,0.210000X-0.260000X0.210000X-0.260000X-0.210000X0.260000X-0.210000X0.260000X0.210000X0*%
%ADD13RoundRect,0.210000X0.260000X-0.210000X0.260000X0.210000X-0.260000X0.210000X-0.260000X-0.210000X0*%
%ADD14RoundRect,0.172500X-0.172500X-0.222500X0.172500X-0.222500X0.172500X0.222500X-0.172500X0.222500X0*%
%ADD15RoundRect,0.102000X-0.950000X0.550000X-0.950000X-0.550000X0.950000X-0.550000X0.950000X0.550000X0*%
%ADD16RoundRect,0.210000X-0.210000X-0.260000X0.210000X-0.260000X0.210000X0.260000X-0.210000X0.260000X0*%
%ADD17RoundRect,0.150000X0.575000X0.500000X-0.575000X0.500000X-0.575000X-0.500000X0.575000X-0.500000X0*%
%ADD18C,1.300000*%
%ADD19RoundRect,0.150000X-0.455000X-0.610000X0.455000X-0.610000X0.455000X0.610000X-0.455000X0.610000X0*%
%ADD20RoundRect,0.215000X-0.245000X0.215000X-0.245000X-0.215000X0.245000X-0.215000X0.245000X0.215000X0*%
%ADD21C,0.900000*%
%ADD22RoundRect,0.100000X0.600000X-0.300000X0.600000X0.300000X-0.600000X0.300000X-0.600000X-0.300000X0*%
%ADD23FreePoly0,90.000000*%
%ADD24FreePoly1,90.000000*%
%ADD25RoundRect,0.215000X0.215000X0.245000X-0.215000X0.245000X-0.215000X-0.245000X0.215000X-0.245000X0*%
%ADD26RoundRect,0.215000X-0.215000X-0.245000X0.215000X-0.245000X0.215000X0.245000X-0.215000X0.245000X0*%
%ADD27RoundRect,0.150000X0.610000X-0.455000X0.610000X0.455000X-0.610000X0.455000X-0.610000X-0.455000X0*%
%ADD28RoundRect,0.225000X0.225000X-0.662500X0.225000X0.662500X-0.225000X0.662500X-0.225000X-0.662500X0*%
%ADD29RoundRect,0.050000X-0.150000X-0.650000X0.150000X-0.650000X0.150000X0.650000X-0.150000X0.650000X0*%
%ADD30RoundRect,0.150000X-1.000000X-1.500000X1.000000X-1.500000X1.000000X1.500000X-1.000000X1.500000X0*%
%ADD31RoundRect,0.150000X1.450000X-1.050000X1.450000X1.050000X-1.450000X1.050000X-1.450000X-1.050000X0*%
%ADD32RoundRect,0.150000X0.800000X-0.250000X0.800000X0.250000X-0.800000X0.250000X-0.800000X-0.250000X0*%
%ADD33RoundRect,0.100000X-0.600000X0.300000X-0.600000X-0.300000X0.600000X-0.300000X0.600000X0.300000X0*%
%ADD34FreePoly0,270.000000*%
%ADD35FreePoly1,270.000000*%
%ADD36RoundRect,0.225000X0.587500X0.225000X-0.587500X0.225000X-0.587500X-0.225000X0.587500X-0.225000X0*%
%ADD37O,1.850000X1.300000*%
%ADD38O,1.250000X1.550000*%
%ADD39RoundRect,0.100000X0.675000X0.200000X-0.675000X0.200000X-0.675000X-0.200000X0.675000X-0.200000X0*%
%ADD40RoundRect,0.300000X-0.300000X-0.325000X0.300000X-0.325000X0.300000X0.325000X-0.300000X0.325000X0*%
%ADD41RoundRect,0.150000X-0.610000X0.455000X-0.610000X-0.455000X0.610000X-0.455000X0.610000X0.455000X0*%
%ADD42RoundRect,0.018800X-0.416200X-0.216200X0.416200X-0.216200X0.416200X0.216200X-0.416200X0.216200X0*%
%ADD43RoundRect,0.075000X-0.075000X0.412500X-0.075000X-0.412500X0.075000X-0.412500X0.075000X0.412500X0*%
%ADD44RoundRect,0.075000X-0.412500X0.075000X-0.412500X-0.075000X0.412500X-0.075000X0.412500X0.075000X0*%
%ADD45R,5.600000X5.600000*%
%ADD46RoundRect,0.225000X-0.225000X0.662500X-0.225000X-0.662500X0.225000X-0.662500X0.225000X0.662500X0*%
%ADD47RoundRect,0.318182X-0.381818X0.381818X-0.381818X-0.381818X0.381818X-0.381818X0.381818X0.381818X0*%
%ADD48RoundRect,0.200000X-0.250000X-0.250000X0.250000X-0.250000X0.250000X0.250000X-0.250000X0.250000X0*%
%ADD49RoundRect,0.200000X-0.450000X-0.250000X0.450000X-0.250000X0.450000X0.250000X-0.450000X0.250000X0*%
%ADD50RoundRect,0.150000X-1.850000X0.600000X-1.850000X-0.600000X1.850000X-0.600000X1.850000X0.600000X0*%
%ADD51RoundRect,0.150000X0.675000X-0.750000X0.675000X0.750000X-0.675000X0.750000X-0.675000X-0.750000X0*%
%ADD52O,1.650000X1.800000*%
%ADD53RoundRect,0.222500X-0.247500X0.222500X-0.247500X-0.222500X0.247500X-0.222500X0.247500X0.222500X0*%
%ADD54RoundRect,0.050000X-0.187500X-0.175000X0.187500X-0.175000X0.187500X0.175000X-0.187500X0.175000X0*%
%ADD55RoundRect,0.050000X0.175000X-0.187500X0.175000X0.187500X-0.175000X0.187500X-0.175000X-0.187500X0*%
%ADD56RoundRect,0.210000X0.210000X0.260000X-0.210000X0.260000X-0.210000X-0.260000X0.210000X-0.260000X0*%
%ADD57RoundRect,0.225000X-0.225000X0.587500X-0.225000X-0.587500X0.225000X-0.587500X0.225000X0.587500X0*%
%ADD58RoundRect,0.080000X-0.100000X-0.400000X0.100000X-0.400000X0.100000X0.400000X-0.100000X0.400000X0*%
G04 APERTURE END LIST*
D10*
X156000000Y-84000000D02*
X159000000Y-84000000D01*
X159000000Y-86000000D01*
X156000000Y-86000000D01*
X156000000Y-84000000D01*
G36*
X156000000Y-84000000D02*
G01*
X159000000Y-84000000D01*
X159000000Y-86000000D01*
X156000000Y-86000000D01*
X156000000Y-84000000D01*
G37*
D11*
%TO.C,C22*%
X140580000Y-96930000D03*
X140580000Y-95970000D03*
%TD*%
D12*
%TO.C,R19*%
X148637500Y-94990000D03*
X148637500Y-96010000D03*
%TD*%
D13*
%TO.C,R1*%
X142000000Y-78510000D03*
X142000000Y-77490000D03*
%TD*%
D14*
%TO.C,R20*%
X138127500Y-79000000D03*
X139147500Y-79000000D03*
%TD*%
D11*
%TO.C,C24*%
X142880000Y-96920000D03*
X142880000Y-95960000D03*
%TD*%
D15*
%TO.C,Y1*%
X138900000Y-83760000D03*
X138900000Y-86260000D03*
%TD*%
D11*
%TO.C,C6*%
X150637500Y-81980000D03*
X150637500Y-81020000D03*
%TD*%
%TO.C,C1*%
X153310000Y-81970000D03*
X153310000Y-81010000D03*
%TD*%
D16*
%TO.C,R4*%
X161627500Y-108500000D03*
X162647500Y-108500000D03*
%TD*%
%TO.C,R11*%
X127627500Y-109000000D03*
X128647500Y-109000000D03*
%TD*%
D17*
%TO.C,Y2*%
X152512500Y-88300000D03*
X150762500Y-88300000D03*
X150762500Y-89700000D03*
X152512500Y-89700000D03*
%TD*%
D18*
%TO.C,TP4*%
X153500000Y-107000000D03*
%TD*%
D19*
%TO.C,D1*%
X154002500Y-93000000D03*
X157272500Y-93000000D03*
%TD*%
D20*
%TO.C,C29*%
X138270000Y-96480000D03*
X138270000Y-97440000D03*
%TD*%
D21*
%TO.C,SW3*%
X126510000Y-79240000D03*
X126510000Y-77540000D03*
D22*
X127810000Y-80090000D03*
X127810000Y-76690000D03*
D23*
X125860000Y-80715000D03*
D24*
X125860000Y-76065000D03*
%TD*%
D16*
%TO.C,R12*%
X150617500Y-83000000D03*
X151637500Y-83000000D03*
%TD*%
D12*
%TO.C,R2*%
X157500000Y-102490000D03*
X157500000Y-103510000D03*
%TD*%
D25*
%TO.C,C7*%
X146980000Y-77500000D03*
X146020000Y-77500000D03*
%TD*%
D26*
%TO.C,C11*%
X162177500Y-85500000D03*
X163137500Y-85500000D03*
%TD*%
D13*
%TO.C,R6*%
X155500000Y-103510000D03*
X155500000Y-102490000D03*
%TD*%
D27*
%TO.C,D3*%
X127137500Y-101135000D03*
X127137500Y-97865000D03*
%TD*%
D18*
%TO.C,TP4*%
X144950000Y-92300000D03*
%TD*%
D16*
%TO.C,R9*%
X162117500Y-84500000D03*
X163137500Y-84500000D03*
%TD*%
D28*
%TO.C,Q2*%
X132125000Y-84375000D03*
X134025000Y-84375000D03*
X133075000Y-82500000D03*
%TD*%
D21*
%TO.C,SW4*%
X126500000Y-105860000D03*
X126500000Y-104160000D03*
D22*
X127800000Y-106710000D03*
X127800000Y-103310000D03*
D23*
X125850000Y-107335000D03*
D24*
X125850000Y-102685000D03*
%TD*%
D11*
%TO.C,C26*%
X139430000Y-97430000D03*
X139430000Y-96470000D03*
%TD*%
D13*
%TO.C,R16*%
X151637500Y-96010000D03*
X151637500Y-94990000D03*
%TD*%
D29*
%TO.C,J3*%
X151137500Y-99000000D03*
X150637500Y-99000000D03*
X150137500Y-99000000D03*
X149637500Y-99000000D03*
X149137500Y-99000000D03*
X148637500Y-99000000D03*
X148137500Y-99000000D03*
X147637500Y-99000000D03*
X147137500Y-99000000D03*
X146637500Y-99000000D03*
X146137500Y-99000000D03*
X145637500Y-99000000D03*
X145137500Y-99000000D03*
X144637500Y-99000000D03*
X144137500Y-99000000D03*
X143637500Y-99000000D03*
X143137500Y-99000000D03*
X142637500Y-99000000D03*
X142137500Y-99000000D03*
X141637500Y-99000000D03*
X141137500Y-99000000D03*
X140637500Y-99000000D03*
X140137500Y-99000000D03*
X139637500Y-99000000D03*
D30*
X137987500Y-101350000D03*
X152787500Y-101350000D03*
%TD*%
D11*
%TO.C,C5*%
X145000000Y-78480000D03*
X145000000Y-77520000D03*
%TD*%
D31*
%TO.C,J1*%
X157500000Y-85032000D03*
X157500000Y-78700000D03*
D32*
X160350000Y-82500000D03*
X160350000Y-81250000D03*
%TD*%
D21*
%TO.C,SW1*%
X163500000Y-76930000D03*
X163500000Y-78630000D03*
D33*
X162200000Y-76080000D03*
X162200000Y-79480000D03*
D34*
X164150000Y-75455000D03*
D35*
X164150000Y-80105000D03*
%TD*%
D36*
%TO.C,U2*%
X156775000Y-96950000D03*
X156775000Y-96000000D03*
X156775000Y-95050000D03*
X154500000Y-95050000D03*
X154500000Y-96950000D03*
%TD*%
D20*
%TO.C,C14*%
X133500000Y-80020000D03*
X133500000Y-80980000D03*
%TD*%
D37*
%TO.C,J2*%
X162137500Y-95500000D03*
X162137500Y-95500000D03*
D38*
X159437500Y-94500000D03*
X159437500Y-94500000D03*
X159437500Y-89500000D03*
X159437500Y-89500000D03*
D37*
X162137500Y-88500000D03*
X162137500Y-88500000D03*
D39*
X159437500Y-93300000D03*
X159437500Y-92650000D03*
X159437500Y-92000000D03*
X159437500Y-91350000D03*
X159437500Y-90700000D03*
%TD*%
D18*
%TO.C,TP3*%
X137700000Y-88650000D03*
%TD*%
D25*
%TO.C,C12*%
X157617500Y-88000000D03*
X156657500Y-88000000D03*
%TD*%
D26*
%TO.C,C15*%
X143137500Y-90500000D03*
X144097500Y-90500000D03*
%TD*%
D11*
%TO.C,C4*%
X151637500Y-81980000D03*
X151637500Y-81020000D03*
%TD*%
D40*
%TO.C,C21*%
X131087500Y-103000000D03*
X132637500Y-103000000D03*
%TD*%
D26*
%TO.C,C9*%
X149170000Y-78750000D03*
X150130000Y-78750000D03*
%TD*%
D13*
%TO.C,R3*%
X158500000Y-103510000D03*
X158500000Y-102490000D03*
%TD*%
D41*
%TO.C,D5*%
X132000000Y-97865000D03*
X132000000Y-101135000D03*
%TD*%
D18*
%TO.C,TP2*%
X155137500Y-83000000D03*
%TD*%
D12*
%TO.C,R14*%
X152637500Y-91990000D03*
X152637500Y-93010000D03*
%TD*%
D11*
%TO.C,C2*%
X143000000Y-78480000D03*
X143000000Y-77520000D03*
%TD*%
D42*
%TO.C,U5*%
X155810000Y-89500000D03*
X155810000Y-90000000D03*
X155810000Y-90500000D03*
X157190000Y-90500000D03*
X157190000Y-90000000D03*
X157190000Y-89500000D03*
%TD*%
D11*
%TO.C,C19*%
X149137500Y-90480000D03*
X149137500Y-89520000D03*
%TD*%
D12*
%TO.C,R18*%
X136637500Y-80490000D03*
X136637500Y-81510000D03*
%TD*%
D18*
%TO.C,TP5*%
X153000000Y-109000000D03*
%TD*%
D11*
%TO.C,C3*%
X144000000Y-78480000D03*
X144000000Y-77520000D03*
%TD*%
D18*
%TO.C,TP6*%
X140500000Y-93000000D03*
%TD*%
D43*
%TO.C,U4*%
X148300000Y-81362500D03*
X147900000Y-81362500D03*
X147500000Y-81362500D03*
X147100000Y-81362500D03*
X146700000Y-81362500D03*
X146300000Y-81362500D03*
X145900000Y-81362500D03*
X145500000Y-81362500D03*
X145100000Y-81362500D03*
X144700000Y-81362500D03*
X144300000Y-81362500D03*
X143900000Y-81362500D03*
X143500000Y-81362500D03*
X143100000Y-81362500D03*
D44*
X142262500Y-82200000D03*
X142262500Y-82600000D03*
X142262500Y-83000000D03*
X142262500Y-83400000D03*
X142262500Y-83800000D03*
X142262500Y-84200000D03*
X142262500Y-84600000D03*
X142262500Y-85000000D03*
X142262500Y-85400000D03*
X142262500Y-85800000D03*
X142262500Y-86200000D03*
X142262500Y-86600000D03*
X142262500Y-87000000D03*
X142262500Y-87400000D03*
D43*
X143100000Y-88237500D03*
X143500000Y-88237500D03*
X143900000Y-88237500D03*
X144300000Y-88237500D03*
X144700000Y-88237500D03*
X145100000Y-88237500D03*
X145500000Y-88237500D03*
X145900000Y-88237500D03*
X146300000Y-88237500D03*
X146700000Y-88237500D03*
X147100000Y-88237500D03*
X147500000Y-88237500D03*
X147900000Y-88237500D03*
X148300000Y-88237500D03*
D44*
X149137500Y-87400000D03*
X149137500Y-87000000D03*
X149137500Y-86600000D03*
X149137500Y-86200000D03*
X149137500Y-85800000D03*
X149137500Y-85400000D03*
X149137500Y-85000000D03*
X149137500Y-84600000D03*
X149137500Y-84200000D03*
X149137500Y-83800000D03*
X149137500Y-83400000D03*
X149137500Y-83000000D03*
X149137500Y-82600000D03*
X149137500Y-82200000D03*
D45*
X145700000Y-84800000D03*
%TD*%
D20*
%TO.C,C16*%
X154137500Y-88000000D03*
X154137500Y-88960000D03*
%TD*%
D46*
%TO.C,Q3*%
X157500000Y-106062500D03*
X155600000Y-106062500D03*
X156550000Y-107937500D03*
%TD*%
D11*
%TO.C,C25*%
X141720000Y-96920000D03*
X141720000Y-95960000D03*
%TD*%
D13*
%TO.C,R15*%
X151637500Y-93010000D03*
X151637500Y-91990000D03*
%TD*%
D41*
%TO.C,D4*%
X129500000Y-97865000D03*
X129500000Y-101135000D03*
%TD*%
D47*
%TO.C,D2*%
X131800000Y-77700000D03*
X131800000Y-80500000D03*
%TD*%
D48*
%TO.C,AE1*%
X148270000Y-76500000D03*
D49*
X150370000Y-76500000D03*
%TD*%
D12*
%TO.C,R10*%
X133500000Y-77990000D03*
X133500000Y-79010000D03*
%TD*%
D50*
%TO.C,L2*%
X133000000Y-104600000D03*
X133000000Y-107400000D03*
%TD*%
D25*
%TO.C,C17*%
X136950000Y-83990000D03*
X135990000Y-83990000D03*
%TD*%
D11*
%TO.C,C23*%
X149637500Y-95980000D03*
X149637500Y-95020000D03*
%TD*%
D12*
%TO.C,R5*%
X156500000Y-102500000D03*
X156500000Y-103520000D03*
%TD*%
D51*
%TO.C,M1*%
X127637500Y-83000000D03*
D52*
X129637500Y-83000000D03*
%TD*%
D53*
%TO.C,L1*%
X148250000Y-77665000D03*
X148250000Y-78635000D03*
%TD*%
D54*
%TO.C,U6*%
X137625000Y-80250000D03*
X137625000Y-80750000D03*
X137625000Y-81250000D03*
X137625000Y-81750000D03*
D55*
X138137500Y-81762500D03*
X138637500Y-81762500D03*
D54*
X139150000Y-81750000D03*
X139150000Y-81250000D03*
X139150000Y-80750000D03*
X139150000Y-80250000D03*
D55*
X138637500Y-80237500D03*
X138137500Y-80237500D03*
%TD*%
D11*
%TO.C,C28*%
X143990000Y-96910000D03*
X143990000Y-95950000D03*
%TD*%
%TO.C,C10*%
X152880000Y-95970000D03*
X152880000Y-95010000D03*
%TD*%
D40*
%TO.C,C20*%
X131450000Y-109000000D03*
X133000000Y-109000000D03*
%TD*%
D16*
%TO.C,R13*%
X135960000Y-86030000D03*
X136980000Y-86030000D03*
%TD*%
D26*
%TO.C,C13*%
X143177500Y-89500000D03*
X144137500Y-89500000D03*
%TD*%
D11*
%TO.C,C27*%
X137100000Y-97450000D03*
X137100000Y-96490000D03*
%TD*%
D13*
%TO.C,R7*%
X152000000Y-86510000D03*
X152000000Y-85490000D03*
%TD*%
D21*
%TO.C,SW2*%
X163490000Y-104135000D03*
X163490000Y-105835000D03*
D33*
X162190000Y-103285000D03*
X162190000Y-106685000D03*
D34*
X164140000Y-102660000D03*
D35*
X164140000Y-107310000D03*
%TD*%
D56*
%TO.C,R8*%
X163147500Y-83500000D03*
X162127500Y-83500000D03*
%TD*%
D18*
%TO.C,TP5*%
X142500000Y-92500000D03*
%TD*%
D57*
%TO.C,U3*%
X162500000Y-98725000D03*
X161550000Y-98725000D03*
X160600000Y-98725000D03*
X160600000Y-101000000D03*
X162500000Y-101000000D03*
%TD*%
D25*
%TO.C,C18*%
X136950000Y-85010000D03*
X135990000Y-85010000D03*
%TD*%
D18*
%TO.C,TP7*%
X141137500Y-90000000D03*
%TD*%
%TO.C,TP1*%
X154740000Y-85290000D03*
%TD*%
D12*
%TO.C,R17*%
X150637500Y-94990000D03*
X150637500Y-96010000D03*
%TD*%
D58*
%TO.C,U1*%
X135400000Y-79530000D03*
X135000000Y-79530000D03*
X134600000Y-79530000D03*
X134600000Y-81130000D03*
X135000000Y-81130000D03*
X135400000Y-81130000D03*
%TD*%
D46*
%TO.C,Q1*%
X158000000Y-99000000D03*
X156100000Y-99000000D03*
X157050000Y-100875000D03*
%TD*%
M02*
